<?xml version="1.0" encoding="UTF-8"?>
<!DOCTYPE svg PUBLIC "-//W3C//DTD SVG 1.1//EN" "http://www.w3.org/Graphics/SVG/1.1/DTD/svg11.dtd">
<!-- Creator: CorelDRAW 2019 (64-Bit) -->
<svg xmlns="http://www.w3.org/2000/svg" xml:space="preserve" width="168.188mm" height="28.3028mm" version="1.1" style="shape-rendering:geometricPrecision; text-rendering:geometricPrecision; image-rendering:optimizeQuality; fill-rule:evenodd; clip-rule:evenodd"
viewBox="0 0 15408.27 2592.91"
 xmlns:xlink="http://www.w3.org/1999/xlink"
 xmlns:xodm="http://www.corel.com/coreldraw/odm/2003">
 <defs>
  <style type="text/css">
   <![CDATA[
    .str0 {stroke:#B09347;stroke-width:18.32;stroke-miterlimit:22.9256}
    .fil1 {fill:none}
    .fil2 {fill:#201E1E;fill-rule:nonzero}
    .fil0 {fill:#B09347;fill-rule:nonzero}
   ]]>
  </style>
 </defs>
 <g id="Capa_x0020_1">
  <metadata id="CorelCorpID_0Corel-Layer"/>
  <g id="_2344060645808">
   <path class="fil0" d="M10133.7 881.27c-35.86,-41.41 -81.31,-67.67 -133.06,-83.83 -16.66,-5.06 -32.07,-2.79 -46.71,6.31 -6.82,4.29 -13.89,8.58 -19.94,13.88 -40.15,33.33 -81.81,64.89 -119.68,100.75 -71.71,67.67 -141.65,138.62 -208.31,212.09l0 0 -166.39 176.24 -16.66 17.42c19.69,-49.99 38.12,-100.75 53.27,-150.24 6.57,-20.7 12.38,-41.4 17.93,-62.1 14.39,-65.4 23.98,-142.92 3.78,-208.05 -4.04,-13.38 -11.36,-25.76 -21.71,-35.35 -31.82,-30.05 -79.28,-48.73 -120.43,-62.36 -29.55,-9.85 -60.86,-13.89 -91.91,-11.87 -47.72,3.29 -94.94,9.34 -140.89,23.74 -147.2,46.71 -276.74,123.97 -388.59,230.02 -58.07,55.29 -108.07,117.66 -148.97,187.09 -8.08,13.38 -15.4,27.02 -22.22,41.16 -11.11,22.72 -20.46,46.2 -27.78,70.7 -8.08,27.02 -10.86,55.55 -7.07,83.32 2.53,19.69 7.58,37.87 14.9,54.78 12.62,29.29 32.83,54.03 62.37,72.97 25.51,16.16 53.27,27.78 82.56,35.6 6.82,1.77 13.63,3.54 20.46,4.04 6.31,0.5 12.12,-0.75 15.9,-6.56 2.27,-3.54 2.27,-8.08 0.5,-12.12 -1.77,-3.79 -3.78,-8.34 -6.82,-11.62 -12.38,-13.38 -17.17,-29.79 -20.45,-46.96 -5.56,-28.28 -6.83,-56.06 -2.79,-82.82 3.54,-23.48 11.11,-46.46 23.23,-68.93 15.9,-29.79 34.34,-57.57 55.04,-84.08 5.55,-7.58 11.36,-14.64 17.42,-21.97 13.63,-16.16 27.78,-31.81 42.16,-46.96 133.57,-139.88 313.6,-255.01 507.51,-285.57 0,0 0.51,0.25 1.52,0.5 1.77,11.62 1.51,22.72 0.25,33.07 -6.06,44.7 -69.43,182.05 -133.06,311.58l-71.71 140.13 0 0 -11.37 22.73c0,0 -87.87,171.69 -87.36,171.44 -10.1,19.44 -60.35,116.65 -74.48,143.67 -8.08,15.4 -16.16,30.8 -24.74,45.7 0,0 -29.55,53.27 -51,85.59 -42.42,8.84 -78.78,24.74 -86.35,28.78 -33.83,18.69 -63.12,45.19 -89.13,77.01 -8.83,10.86 -16.41,22.73 -22.22,35.35 -16.16,36.1 -12.88,58.82 15.66,78.52 23.73,16.41 49.23,30.8 75.24,43.42 26.51,12.88 53.02,12.88 74.48,-11.61 3.28,-3.54 7.07,-6.83 10.86,-9.85 52.27,-39.64 108.32,-73.23 174.48,-83.83 61.1,-9.85 121.95,-3.54 182.29,8.58 43.43,-15.66 -36.86,-91.66 -37.37,-91.91 -8.58,-6.31 -17.42,-12.62 -26.26,-19.19 -11.36,-6.82 -14.14,-8.58 -25.25,-14.14 2.53,-4.04 5.05,-8.58 7.82,-13.38 73.23,-102.76 146.7,-205.53 220.17,-308.3 61.87,-86.86 125.75,-172.2 194.17,-254.25 48.99,-58.33 99.99,-114.88 153.01,-169.17 24.74,-25.25 49.75,-49.99 75.5,-73.98 8.58,-8.34 21.21,-20.96 29.03,-22.73 3.03,7.58 -2.52,16.66 -6.06,23.23 -18.94,35.86 -38.88,71.2 -57.83,107.06 -64.13,120.94 -121.7,244.91 -166.89,374.19 -28.02,80.03 -48.99,161.84 -55.55,246.68 -2.79,37.37 -0.51,74.49 10.35,110.09 12.62,41.91 36.35,78.27 75.99,98.22 36.62,18.43 76.76,29.29 117.67,31.56 35.6,2.27 60.59,-5.05 73.72,-40.65 5.3,-14.65 2.78,-21.97 -10.86,-28.28 -13.89,-6.57 -38.38,-8.58 -41.41,-26.77 -6.56,-37.87 2.02,-75.99 11.87,-112.61 15.65,-58.07 38.62,-113.87 61.86,-169.42 44.44,-107.06 98.72,-209.57 152.76,-312.08 47.98,-90.14 90.9,-182.55 125.74,-278.5 15.41,-42.17 28.28,-85.59 40.66,-129.03 4.04,-14.64 4.29,-30.3 5.05,-45.45 0.76,-18.68 -5.81,-36.61 -17.93,-50.74l0 0z"/>
   <path id="1" class="fil0" d="M10673.28 1557.44c-7.82,1.51 -14.39,3.28 -17.42,4.54 -1.26,0.76 -19.44,29.79 -49.99,72.22 -45.45,62.62 -94.68,122.96 -149.73,177.24 -27.02,26.51 -55.3,51.51 -85.34,73.98 -38.13,28.54 -80.04,50.75 -124.73,65.65 -126.76,39.14 -88.37,-116.9 -85.35,-128.77 16.66,-50.24 44.7,-95.95 71.46,-137.36 7.58,0 7.58,0 10.1,0 52.52,-1.26 101.25,-15.65 147.96,-36.35 10.86,-4.8 21.46,-9.85 32.06,-15.41 67.67,-34.34 110.84,-90.9 136.09,-161.59 12.12,-33.84 5.3,-62.87 -20.7,-87.88 -37.62,-36.61 -82.31,-59.33 -133.82,-67.91 -15.4,-2.79 -32.32,-2.02 -47.97,0.5 -37.12,6.06 -72.72,17.92 -104.79,38.38 -109.07,69.69 -190.12,164.88 -245.42,280.26 -36.1,75.24 -46.71,155.54 -19.94,238.1 16.41,50.75 46.2,90.14 91.4,117.92 27.26,16.91 56.55,30.55 87.36,39.38 34.34,9.85 70.19,12.38 105.03,5.05 73.73,-15.65 130.04,-68.93 180.28,-121.44 79.54,-83.58 175.73,-226.99 263.09,-348.69 9.85,-13.64 -18.94,-11.87 -39.64,-7.83l0 0zm-223.2 -118.67c2.27,6.31 1.51,13.63 0.25,18.43 -31.81,123.47 -154.27,146.69 -156.8,145.94 33.08,-59.59 104.79,-135.59 156.55,-164.37z"/>
   <path id="2" class="fil0" d="M11640.08 1420.59c-4.54,-16.91 -13.38,-32.32 -27.52,-43.68 -22.73,-17.93 -53.28,-24.74 -82.07,-24.74 -0.25,0 -0.75,0 -1.01,0 -0.5,0 -0.76,0 -1.26,0 -39.38,2.53 -7.82,40.4 -1.77,80.04 13.14,82.31 -14.64,159.83 -67.16,238.61 -49.23,73.98 -104.53,144.93 -171.95,203.25 -40.39,34.59 -82.31,60.35 -130.03,78.27 -21.72,6.57 -19.7,-17.93 -16.92,-31.82 0.76,-3.02 1.51,-5.81 2.27,-8.83 2.27,-9.6 4.8,-18.94 7.07,-28.28 6.56,-27.02 13.38,-54.29 22.47,-80.79 21.97,-65.15 48.73,-128.77 80.55,-190.13 30.3,-59.08 60.85,-117.91 91.15,-177.24 5.81,-11.11 10.86,-22.47 15.4,-34.09 5.05,-13.13 1.26,-24.49 -8.33,-34.34 -18.19,-18.19 -40.4,-28.78 -63.38,-39.39 -71.71,-32.06 -129.53,58.58 -163.11,106.56 -31.56,45.19 -59.59,92.91 -83.07,142.4 0,0.26 -0.25,0.26 -0.25,0.5 -17.67,37.63 -30.05,77.27 -46.97,115.14 -36.61,80.55 -90.39,157.56 -152.25,220.68 -7.32,7.58 -15.14,15.15 -23.22,21.97 -15.15,12.87 -37.12,30.04 -58.33,28.28 -22.72,-1.77 -31.06,-40.91 -30.55,-58.33 0.76,-18.68 2.79,-37.62 8.08,-55.3 8.58,-29.54 19.19,-58.58 31.31,-86.6 35.34,-82.56 75.75,-162.6 120.69,-240.12 15.66,-26.77 30.8,-53.28 45.7,-80.3 6.31,-11.61 12.38,-23.73 16.92,-36.35 8.58,-22.47 6.06,-30.31 -11.86,-45.71 -26.01,-22.22 -57.32,-33.83 -89.39,-43.42 -27.78,-8.34 -53.53,-5.56 -74.48,15.9 0,0 -336.58,459.28 -193.92,624.92 4.04,4.29 7.83,8.58 12.12,12.37 1.01,0.76 2.02,1.77 3.03,2.53 1.01,0.76 1.77,1.77 2.78,2.52 1.01,0.76 1.77,1.52 2.78,2.28 11.86,9.34 25,17.42 39.64,24.23 22.73,10.86 46.21,19.7 70.19,26.77 0,0 5.3,2.27 14.65,4.04 29.29,5.3 98.72,5.05 179.77,-85.59 16.91,-17.93 36.35,-43.18 57.31,-72.97 -0.26,18.18 1.26,36.1 5.05,54.28 7.83,36.1 32.58,62.11 64.14,80.29 30.04,17.18 64.13,31.57 99.48,31.06 35.34,-0.25 71.45,-20.19 101.5,-37.11 40.91,-23.23 78.78,-50.75 114.63,-81.05 70.45,-59.59 129.28,-131.8 180.03,-208.81 48.48,-73.72 99.99,-154.02 112.11,-243.15 2.27,-16.41 2.27,-32.82 -2.02,-48.73l0 0z"/>
   <path id="3" class="fil0" d="M12412.7 1561.99c-3.54,1.77 -116.15,188.61 -266.89,309.3 0.5,-0.5 1.01,-1.26 1.52,-1.77 2.78,-17.93 1.51,-36.61 -1.52,-56.31 -7.58,-48.73 -26.01,-71.46 -40.39,-82.31 -70.95,-38.38 -208.81,-48.47 -208.81,-48.47 45.7,-80.3 105.79,-149.23 172.96,-216.39 -1.26,9.85 -1.51,19.94 -4.3,29.29 -4.54,15.66 1.02,27.02 13.14,36.1 8.07,6.06 16.41,11.87 25.25,16.16 17.67,8.84 28.02,6.57 39.38,-9.09 17.93,-24.99 28.02,-53.53 30.3,-84.33 1.77,-25.25 -6.06,-46.71 -23.48,-65.39 -26.26,-28.54 -58.32,-47.47 -92.67,-63.88 -39.13,-18.43 -77.76,-18.69 -116.9,-0.76 -9.09,4.04 -18.43,8.08 -27.27,12.62 -81.3,42.42 -145.68,103.52 -194.67,180.28 -11.36,17.93 -20.2,37.88 -28.53,57.32 -16.66,39.14 -9.6,73.72 22.22,103.01 56.81,51.76 118.42,93.93 197.44,103.78 9.6,1.26 33.08,2.27 37.88,13.13 0.75,1.26 1.01,3.03 1.01,4.8 0.5,11.36 -2.78,22.22 -8.58,31.81 -18.94,31.06 -44.95,57.57 -76,76.51 -22.98,13.89 -72.97,40.91 -95.44,13.38 -7.32,-8.84 -11.36,-24.49 -8.84,-35.86 12.88,-57.31 48.99,-56.55 3.79,-84.33 -29.55,-17.93 -91.91,-44.95 -120.44,26.01 -20.19,51 -23.48,116.39 19.45,157.56 28.78,27.77 69.18,42.92 109.58,49.99 0.25,0 0.25,0 0.25,0 0,0 0.26,0 0.51,0 2.02,0.5 4.04,0.75 6.06,1.01 1.01,0.25 2.02,0.25 3.28,0.5 15.41,2.27 30.55,3.54 45.2,3.78 2.02,0.26 4.29,0.26 6.56,0.26 5.81,0 11.87,0 17.67,-0.26 28.03,-0.5 62.11,-3.02 99.74,-10.1 97.71,-18.68 219.17,-68.67 321.17,-192.4 8.08,-10.1 16.42,-20.7 24.5,-31.56 56.81,-74.49 116.65,-161.85 172.7,-240.12 13.63,-18.69 -45.95,-8.08 -56.81,-3.29l0 0z"/>
   <path class="fil0" d="M13665.32 848.45c-28.78,-17.42 -59.59,-31.56 -92.42,-42.42 -30.04,-10.1 -61.86,-13.89 -93.16,-11.62 -47.47,3.03 -94.43,9.09 -139.88,23.48 -147.2,46.71 -276.73,123.97 -388.33,230.02 -58.33,55.29 -108.32,117.66 -149.23,187.09 -8.08,13.38 -15.4,27.02 -22.22,41.16 -11.11,22.72 -20.45,46.2 -27.78,70.7 -7.82,27.02 -10.86,55.55 -7.06,83.32 2.78,19.69 7.57,37.87 14.9,54.78 12.62,29.29 32.83,54.03 62.36,72.97 25.51,16.16 53.27,27.78 82.57,35.6 6.82,1.77 13.63,3.54 20.45,4.04 6.57,0.5 12.37,-0.75 15.9,-6.56 2.27,-3.54 2.27,-8.08 0.5,-12.12 -1.77,-3.79 -3.78,-8.34 -6.82,-11.62 -12.37,-13.38 -17.17,-29.79 -20.45,-46.96 -5.55,-28.28 -6.57,-56.06 -2.53,-82.82 3.29,-23.48 10.86,-46.46 22.98,-68.93 15.91,-29.79 34.34,-57.57 55.04,-84.08 5.56,-7.58 11.62,-14.64 17.42,-21.97 13.63,-16.16 27.78,-31.81 42.17,-46.96 133.56,-139.88 313.59,-255.01 507.51,-285.57 -64.89,55.55 -124.99,118.42 -181.04,179.27 -57.32,62.11 -112.36,126.75 -168.41,189.88 -8.34,9.34 -14.39,16.66 -25.25,27.52 0,0 -184.07,-26.51 -238.1,110.34 9.59,0 19.19,0.25 28.28,0.25 33.58,0.26 107.06,7.33 118.16,11.36 -5.81,8.08 -12.12,16.16 -18.18,24.24 -23.98,32.07 -49.49,66.15 -73.23,97.71 -29.29,39.64 -260.06,368.39 -364.85,385.55 -9.09,1.52 -18.43,1.02 -27.78,-0.5 -10.6,-1.77 -19.44,-6.82 -29.54,-9.59 -2.78,19.94 7.06,43.68 18.43,59.59 12.62,17.68 31.06,30.81 52.27,35.1 44.69,9.09 92.41,5.3 130.28,-21.97 87.62,-62.62 155.53,-144.68 218.15,-231.28 68.68,-94.94 137.87,-189.37 206.8,-283.8 8.08,-11.11 17.17,-21.97 26.76,-34.35 5.3,-6.56 117.66,11.37 145.69,19.45 -4.54,10.6 -8.08,18.94 -11.87,27.02 -22.98,46.96 -46.46,93.42 -68.67,140.64 -23.99,51.26 -46.21,103.52 -62.11,158.31 -14.39,48.99 -25,98.73 -24.74,150.24 0,31.56 10.86,58.83 32.57,81.81 30.05,32.31 81.05,57.82 127.76,58.82 20.2,1.77 55.04,-3.02 63.63,-21.46 8.34,-18.43 0,-33.59 0,-33.59 -44.43,-7.32 -22.22,-66.4 -15.4,-82.06 0.5,-1.26 1.26,-2.78 1.77,-4.04 33.33,-73.47 70.7,-144.93 104.79,-217.9 33.83,-72.71 68.67,-144.93 104.78,-216.64 7.07,-13.63 14.15,-27.52 21.21,-41.15 49.24,-98.48 91.66,-202.76 120.19,-309.06 12.88,-46.96 23.48,-95.95 22.98,-144.92 -0.5,-83.58 -60.35,-145.19 -127.25,-186.34l0 0zm-342.63 504.73c13.38,-17.18 17.17,-18.43 24.24,-26.51 80.79,-93.93 184.32,-197.7 254.25,-255.77 -52.27,111.35 -161.34,300.71 -161.34,300.71l-117.15 -18.42z"/>
   <path id="1" class="fil0" d="M14543.99 1561.99c-3.78,1.77 -126,205.02 -286.58,324.46 28.27,-35.86 52.01,-75.5 72.21,-116.4 33.83,-68.43 65.65,-143.16 85.34,-216.89 17.42,-65.65 18.43,-149.48 -42.66,-193.16 -27.52,-19.7 -57.32,-32.58 -89.39,-42.93 -35.6,-11.36 -65.9,-7.32 -96.95,15.66 -47.98,36.1 -88.63,79.28 -130.79,121.7 -6.06,6.06 -10.87,10.86 -14.91,14.39 1.52,-2.52 3.03,-4.79 4.3,-6.82 3.28,-7.82 6.06,-14.9 7.32,-18.43 5.3,-16.16 3.54,-30.8 -7.06,-44.95 -12.12,-16.15 -26.27,-30.04 -41.16,-42.42 -12.62,-10.1 -26.01,-19.18 -39.64,-27.77 -5.55,-3.29 -11.36,-6.83 -16.91,-9.85 -13.89,-7.83 -28.78,-5.81 -41.41,3.54 -8.58,6.06 -16.42,13.38 -23.49,21.21 -38.62,42.16 -70.7,89.38 -100.23,138.11 -127.26,209.57 -230.78,430 -306.27,663.3 -21.71,67.16 -39.9,135.08 -51,204.52 -6.83,42.17 -10.61,84.59 -6.57,127 5.81,60.6 48.48,104.79 109.33,114.13 14.9,2.52 24.74,-5.3 20.95,-19.94 -8.08,-32.83 0.26,-63.38 9.34,-93.93 9.85,-33.07 21.21,-65.65 33.33,-97.97 45.19,-121.2 96.71,-239.36 153.26,-355.51 0.26,-0.26 0.26,-0.26 0.26,-0.26 0,0 5.3,-11.36 14.9,-30.8 1.01,-2.78 2.27,-5.55 3.54,-7.82 5.05,-10.35 11.1,-22.47 17.67,-35.86 3.28,6.06 6.82,11.86 10.61,17.42 0,0 0,0 0,0 0,0 0.25,0 0.25,0 11.87,16.91 25.51,30.3 37.12,39.89 6.56,5.56 14.14,11.11 22.46,16.42 2.79,1.51 4.3,2.52 4.3,2.52 18.69,10.61 41.67,19.19 69.69,21.97l0 0c0,0 0.25,0 0.5,0 6.31,0.5 12.87,0.76 19.7,0.76 52.51,1.26 100.99,-4.8 145.44,-15.91 186.59,-46.2 299.7,-178.25 320.15,-203.5 1.02,-1.26 2.02,-2.79 3.29,-4.04 60.85,-78.27 126,-173.72 186.85,-258.55 13.38,-18.69 -46.21,-8.08 -57.07,-3.29l0 0zm-392.12 57.31c-60.59,116.66 -126.75,237.35 -242.13,307.54 -76,46.21 -51.01,-43.42 -47.47,-57.06 6.06,-23.23 28.54,-69.19 39.14,-90.39 83.58,-166.9 253.25,-301.47 266.89,-311.58 45.7,-34.34 63.37,-2.02 -16.42,151.49l0 0z"/>
   <path id="2" class="fil0" d="M15337.83 1561.99c-3.78,1.77 -126,205.02 -286.58,324.46 28.27,-35.86 52.01,-75.5 72.21,-116.4 33.83,-68.43 65.65,-143.16 85.34,-216.89 17.42,-65.65 18.43,-149.48 -42.66,-193.16 -27.52,-19.7 -57.32,-32.58 -89.39,-42.93 -35.6,-11.36 -65.9,-7.32 -96.95,15.66 -47.98,36.1 -88.63,79.28 -130.79,121.7 -6.06,6.06 -10.87,10.86 -14.91,14.39 1.52,-2.52 3.03,-4.79 4.3,-6.82 3.28,-7.82 6.06,-14.9 7.32,-18.43 5.3,-16.16 3.54,-30.8 -7.06,-44.95 -12.12,-16.15 -26.27,-30.04 -41.16,-42.42 -12.62,-10.1 -26.01,-19.18 -39.64,-27.77 -5.55,-3.29 -11.36,-6.83 -16.91,-9.85 -13.89,-7.83 -28.78,-5.81 -41.41,3.54 -8.58,6.06 -16.42,13.38 -23.49,21.21 -38.62,42.16 -70.7,89.38 -100.23,138.11 -127.26,209.57 -230.78,430 -306.27,663.3 -21.71,67.16 -39.9,135.08 -51,204.52 -6.83,42.17 -10.61,84.59 -6.57,127 5.81,60.6 48.48,104.79 109.33,114.13 14.9,2.52 24.74,-5.3 20.95,-19.94 -8.08,-32.83 0.26,-63.38 9.34,-93.93 9.85,-33.07 21.21,-65.65 33.33,-97.97 45.19,-121.2 96.71,-239.36 153.26,-355.51 0.26,-0.26 0.26,-0.26 0.26,-0.26 0,0 5.3,-11.36 14.9,-30.8 1.01,-2.78 2.27,-5.55 3.54,-7.82 5.05,-10.35 11.1,-22.47 17.67,-35.86 3.28,6.06 6.82,11.86 10.61,17.42 0,0 0,0 0,0 0,0 0.25,0 0.25,0 11.87,16.91 25.51,30.3 37.12,39.89 6.56,5.56 14.14,11.11 22.46,16.42 2.79,1.51 4.3,2.52 4.3,2.52 18.69,10.61 41.67,19.19 69.69,21.97l0 0c0,0 0.25,0 0.5,0 6.31,0.5 12.87,0.76 19.7,0.76 52.51,1.26 100.99,-4.8 145.44,-15.91 186.59,-46.2 299.7,-178.25 320.15,-203.5 1.02,-1.26 2.02,-2.79 3.29,-4.04 60.85,-78.27 126,-173.72 186.85,-258.55 13.38,-18.69 -46.21,-8.08 -57.07,-3.29l0 0zm-392.12 57.31c-60.59,116.66 -126.75,237.35 -242.13,307.54 -76,46.21 -51.01,-43.42 -47.47,-57.06 6.06,-23.23 28.54,-69.19 39.14,-90.39 83.58,-166.9 253.25,-301.47 266.89,-311.58 45.7,-34.34 63.37,-2.02 -16.42,151.49l0 0z"/>
  </g>
  <g id="_2344060647632">
   <polygon class="fil1 str0" points="4286.2,25.04 4342.52,426.36 3605.79,293.33 "/>
   <polygon class="fil1 str0" points="3605.79,293.33 3152.02,843.03 3157.24,598.71 "/>
   <polygon class="fil1 str0" points="3605.79,293.33 3152.02,843.03 3544.29,762.78 "/>
   <polygon class="fil1 str0" points="3605.79,293.33 4220.75,404.37 3544.29,762.78 "/>
   <polygon class="fil1 str0" points="3030.78,1248.59 3664.29,1396.74 3544.29,762.78 "/>
   <polygon class="fil1 str0" points="3030.78,1248.59 3664.29,1396.74 3432.99,2126.12 "/>
   <polygon class="fil1 str0" points="3921.12,2009.09 3664.29,1396.74 3432.99,2126.12 "/>
   <polygon class="fil1 str0" points="3921.12,2009.09 3664.29,1396.74 4008,1347.07 "/>
   <polygon class="fil1 str0" points="3544.29,762.78 3664.29,1396.74 4008,1347.07 "/>
   <polygon class="fil1 str0" points="3544.29,762.78 4220.75,404.37 4008,1347.07 "/>
   <polygon class="fil1 str0" points="4342.52,426.36 4220.75,404.37 4008,1347.07 "/>
   <polygon class="fil1 str0" points="4202.36,812.14 4675.2,1285.44 4008,1347.07 "/>
   <polygon class="fil1 str0" points="4202.36,812.14 4675.2,1285.44 4342.52,426.36 "/>
   <polygon class="fil1 str0" points="4585.53,101.84 4675.2,1285.44 4342.52,426.36 "/>
   <polygon class="fil1 str0" points="4585.53,101.84 4612,451.32 4789.99,247.76 "/>
   <polygon class="fil1 str0" points="5182.26,757.2 4612,451.32 4789.99,247.76 "/>
   <polygon class="fil1 str0" points="4585.53,101.84 4848.48,169.9 4789.99,247.76 "/>
   <polygon class="fil1 str0" points="4934.87,185.6 4848.48,169.9 4789.99,247.76 "/>
   <polygon class="fil1 str0" points="5699.4,1386.3 5182.26,757.2 5115.43,131.85 5217.32,116.01 "/>
   <polygon class="fil1 str0" points="5115.43,131.85 5182.26,757.2 4789.99,247.76 4934.87,185.6 "/>
   <polygon class="fil1 str0" points="5182.26,757.2 4612,451.32 4649.47,945.83 "/>
   <polygon class="fil1 str0" points="5182.26,757.2 5699.4,1386.3 5174.43,1166.07 "/>
   <polygon class="fil1 str0" points="4675.2,1285.44 5361.24,1840.68 4649.47,945.83 "/>
   <polygon class="fil1 str0" points="5699.4,1386.3 5361.24,1840.68 5245.16,1195.74 "/>
   <polygon class="fil1 str0" points="5245.16,1195.74 5361.24,1840.68 4649.47,945.83 "/>
   <polygon class="fil1 str0" points="5182.26,757.2 5174.43,1166.07 4649.47,945.83 "/>
   <polygon class="fil1 str0" points="5182.26,757.2 5366.53,981.37 5436.91,1276.18 "/>
   <polygon class="fil1 str0" points="5182.26,757.2 4585.53,101.84 4789.99,247.76 "/>
   <polygon class="fil1 str0" points="4133.88,789.28 3957.47,543.87 4008,1347.07 "/>
   <polygon class="fil1 str0" points="4133.88,789.28 3982.74,945.47 4008,1347.07 "/>
   <polygon class="fil1 str0" points="3030.78,1248.59 2425.95,1522.42 3544.29,762.78 "/>
   <polygon class="fil1 str0" points="3152.02,843.03 2900.02,1200.41 3544.29,762.78 "/>
   <polygon class="fil1 str0" points="3152.02,843.03 2900.02,1200.41 2583.18,1272.9 "/>
   <polygon class="fil1 str0" points="2425.95,1522.42 2900.02,1200.41 2583.18,1272.9 "/>
   <polygon class="fil1 str0" points="3152.02,843.03 2922.2,767.92 2583.18,1272.9 "/>
   <polygon class="fil1 str0" points="3152.02,843.03 2922.2,767.92 3157.24,598.71 "/>
   <polygon class="fil1 str0" points="3605.79,293.33 3163.98,497.44 3157.24,598.71 "/>
   <polygon class="fil1 str0" points="3163.98,497.44 2776.07,699.03 2922.2,767.92 3157.24,598.71 "/>
   <polygon class="fil1 str0" points="1610.87,1642.46 2922.2,767.92 2583.18,1272.9 "/>
   <polygon class="fil1 str0" points="2372.8,1134.32 2922.2,767.92 2349.68,1069.61 "/>
   <polygon class="fil1 str0" points="2259.66,979.94 2776.07,699.03 2608.2,933.38 "/>
   <polygon class="fil1 str0" points="2259.66,979.94 2349.68,1069.61 2608.2,933.38 "/>
   <polygon class="fil1 str0" points="2259.66,979.94 2304.67,1024.78 1438.29,1442.3 "/>
   <polygon class="fil1 str0" points="2349.68,1069.61 2304.67,1024.78 1947.08,1418.23 2372.8,1134.32 "/>
   <polygon class="fil1 str0" points="2304.67,1024.78 1947.08,1418.23 1610.87,1642.46 1438.29,1442.3 "/>
   <polygon class="fil1 str0" points="5699.4,1386.3 5361.24,1840.68 6133.72,1774.24 "/>
   <polygon class="fil1 str0" points="5699.4,1386.3 5483.05,816.23 5762.26,1227.31 "/>
   <polygon class="fil1 str0" points="5699.4,1386.3 5947.99,1500.77 5762.26,1227.31 "/>
   <polygon class="fil1 str0" points="5699.4,1386.3 6133.72,1774.24 5947.99,1500.77 "/>
   <polygon class="fil1 str0" points="5787.33,1016.06 5483.05,816.23 5762.26,1227.31 "/>
   <polygon class="fil1 str0" points="5787.33,1016.06 5483.05,816.23 5415.17,385.02 "/>
   <polygon class="fil1 str0" points="5217.32,116.01 5483.05,816.23 5415.17,385.02 "/>
   <polygon class="fil1 str0" points="5787.33,1016.06 5947.99,1500.77 5762.26,1227.31 "/>
   <polygon class="fil1 str0" points="5787.33,1016.06 5947.99,1500.77 6350,1694.73 "/>
   <polygon class="fil1 str0" points="6133.72,1774.24 5947.99,1500.77 6350,1694.73 "/>
   <polygon class="fil1 str0" points="5787.33,1016.06 6523.8,1541.27 6350,1694.73 "/>
   <polygon class="fil1 str0" points="5787.33,1016.06 6100.72,1000.96 5415.17,385.02 "/>
   <polygon class="fil1 str0" points="5217.32,116.01 5559.25,343.78 5415.17,385.02 "/>
   <polygon class="fil1 str0" points="5819.8,748.57 5559.25,343.78 5415.17,385.02 "/>
   <polygon class="fil1 str0" points="5787.33,1016.06 6100.72,1000.96 6905.36,1528.13 "/>
   <polygon class="fil1 str0" points="5217.32,116.01 5559.25,343.78 5658.33,276.02 "/>
   <polygon class="fil1 str0" points="5779.1,438.82 5559.25,343.78 5658.33,276.02 "/>
   <polygon class="fil1 str0" points="5779.1,438.82 5559.25,343.78 5819.8,748.57 "/>
   <polygon class="fil1 str0" points="5779.1,438.82 5908.42,664.85 6100.72,1000.96 5819.8,748.57 "/>
   <polygon class="fil1 str0" points="6398.16,1195.83 5908.42,664.85 6100.72,1000.96 "/>
   <polygon class="fil1 str0" points="6398.16,1195.83 5908.42,664.85 6901.46,1319.58 "/>
   <polygon class="fil1 str0" points="6398.16,1195.83 6905.36,1528.13 6901.46,1319.58 "/>
   <polygon class="fil1 str0" points="5779.1,438.82 5779.1,438.82 5777.24,374.62 5658.33,276.02 "/>
   <polygon class="fil1 str0" points="5779.1,438.82 5779.1,438.82 5777.24,374.62 6149.74,698.56 5890.39,633.34 "/>
   <polygon class="fil1 str0" points="5908.42,664.85 6269.47,902.88 6149.74,698.56 5890.39,633.34 "/>
   <polygon class="fil1 str0" points="6269.47,902.88 6149.74,698.56 7018.83,1200.48 6901.46,1319.58 "/>
   <polygon class="fil1 str0" points="6269.47,902.88 6149.74,698.56 6470.51,883.82 "/>
   <polygon class="fil1 str0" points="6177.89,606.05 6149.74,698.56 6470.51,883.82 "/>
   <polygon class="fil1 str0" points="6177.89,606.05 6149.74,698.56 5903.91,484.78 "/>
   <polygon class="fil1 str0" points="6177.89,606.05 5893.02,375.86 5658.33,276.02 5903.91,484.78 "/>
   <polygon class="fil1 str0" points="6177.89,606.05 6526.8,740.55 6470.51,883.82 "/>
   <polygon class="fil1 str0" points="6683.13,830.29 6526.8,740.55 6470.51,883.82 "/>
   <polygon class="fil1 str0" points="6683.13,830.29 6730.15,1033.76 6470.51,883.82 "/>
   <polygon class="fil1 str0" points="6683.13,830.29 6730.15,1033.76 6646.9,985.68 "/>
   <polygon class="fil1 str0" points="6683.13,830.29 6730.15,1033.76 6981.34,1178.83 "/>
   <polygon class="fil1 str0" points="6683.13,830.29 6900.49,954.99 6851.28,1026.84 "/>
   <polygon class="fil1 str0" points="6981.34,1178.83 6900.49,954.99 6851.28,1026.84 "/>
   <polygon class="fil1 str0" points="5217.32,116.01 5446.58,164.67 5658.33,276.02 "/>
   <polygon class="fil1 str0" points="5886.5,372.09 5635.88,225.79 5658.33,276.02 "/>
   <polygon class="fil1 str0" points="5446.58,164.67 5635.88,225.79 5658.33,276.02 "/>
   <polygon class="fil1 str0" points="6177.89,606.05 5893.02,375.86 6526.8,740.55 "/>
   <polygon class="fil1 str0" points="6912.46,1300.59 7164.46,1657.96 7481.29,1730.45 "/>
   <polygon class="fil1 str0" points="7638.53,1979.97 7164.46,1657.96 7481.29,1730.45 "/>
   <polygon class="fil1 str0" points="6912.46,1300.59 7142.29,1225.47 7481.29,1730.45 "/>
   <polygon class="fil1 str0" points="6912.46,1300.59 7142.29,1225.47 7018.83,1200.48 "/>
   <polygon class="fil1 str0" points="6900.49,954.99 7288.41,1156.57 7142.29,1225.47 "/>
   <polygon class="fil1 str0" points="7859.61,1793.43 7142.29,1225.47 7481.29,1730.45 "/>
   <polygon class="fil1 str0" points="7691.68,1591.87 7142.29,1225.47 7714.79,1527.16 "/>
   <polygon class="fil1 str0" points="7804.81,1437.49 7288.41,1156.57 7456.27,1390.94 "/>
   <polygon class="fil1 str0" points="7804.81,1437.49 7714.79,1527.16 7456.27,1390.94 "/>
   <polygon class="fil1 str0" points="7804.81,1437.49 7759.8,1482.33 8626.18,1899.86 "/>
   <polygon class="fil1 str0" points="7714.79,1527.16 7759.8,1482.33 8117.39,1875.78 7691.68,1591.87 "/>
   <polygon class="fil1 str0" points="1494.65,1507.66 877.15,1765.11 1438.29,1442.3 "/>
   <polygon class="fil1 str0" points="4286.2,25.04 4342.52,426.36 4341.92,18.05 "/>
   <polygon class="fil1 str0" points="4585.53,101.84 4342.52,426.36 4341.92,18.05 "/>
   <path class="fil2" d="M2583.18 1255.31c4.86,0 9.26,1.97 12.44,5.16 3.19,3.19 5.16,7.59 5.16,12.43 0,4.86 -1.97,9.25 -5.16,12.44 -3.19,3.19 -7.59,5.16 -12.44,5.16 -4.85,0 -9.24,-1.97 -12.43,-5.16 -3.19,-3.18 -5.16,-7.58 -5.16,-12.44 0,-4.86 1.97,-9.25 5.16,-12.43 3.18,-3.19 7.58,-5.16 12.43,-5.16z"/>
   <path class="fil2" d="M2337.24 1026.68c8.42,0 16.05,3.42 21.57,8.93 5.52,5.53 8.93,13.16 8.93,21.57 0,8.42 -3.42,16.04 -8.93,21.56 -5.52,5.52 -13.15,8.94 -21.57,8.94 -8.41,0 -16.03,-3.42 -21.55,-8.93 -5.53,-5.52 -8.94,-13.15 -8.94,-21.57 0,-8.42 3.41,-16.04 8.93,-21.57 5.52,-5.52 13.15,-8.93 21.56,-8.93z"/>
   <path class="fil2" d="M2920.84 752.34c4.86,0 9.26,1.97 12.44,5.15 3.18,3.19 5.16,7.59 5.16,12.44 0,4.86 -1.98,9.25 -5.16,12.43 -3.19,3.19 -7.59,5.16 -12.44,5.16 -4.86,0 -9.25,-1.97 -12.43,-5.15 -3.19,-3.18 -5.16,-7.59 -5.16,-12.44 0,-4.86 1.97,-9.25 5.15,-12.44 3.19,-3.18 7.59,-5.15 12.44,-5.15z"/>
   <path class="fil2" d="M3160.97 795.73c8.42,0 16.04,3.42 21.56,8.93 5.52,5.53 8.93,13.16 8.93,21.57 0,8.42 -3.42,16.04 -8.93,21.56 -5.52,5.52 -13.15,8.94 -21.56,8.94 -8.42,0 -16.04,-3.42 -21.56,-8.93 -5.52,-5.52 -8.94,-13.15 -8.94,-21.57 0,-8.42 3.42,-16.05 8.93,-21.57 5.52,-5.52 13.15,-8.93 21.57,-8.93z"/>
   <path class="fil2" d="M2912.45 1170.38c4.86,0 9.25,1.97 12.44,5.15 3.18,3.19 5.15,7.59 5.15,12.44 0,4.86 -1.97,9.25 -5.15,12.44 -3.19,3.18 -7.59,5.15 -12.44,5.15 -4.86,0 -9.25,-1.97 -12.43,-5.15 -3.19,-3.18 -5.16,-7.59 -5.16,-12.44 0,-4.86 1.97,-9.25 5.15,-12.44 3.18,-3.18 7.59,-5.15 12.44,-5.15z"/>
   <path class="fil2" d="M3576.05 722.51c4.86,0 9.25,1.97 12.44,5.16 3.18,3.19 5.15,7.59 5.15,12.44 0,4.85 -1.97,9.24 -5.15,12.43 -3.19,3.19 -7.59,5.16 -12.44,5.16 -4.86,0 -9.25,-1.97 -12.43,-5.16 -3.19,-3.18 -5.16,-7.58 -5.16,-12.43 0,-4.86 1.97,-9.26 5.15,-12.44 3.19,-3.19 7.59,-5.16 12.44,-5.16z"/>
   <path class="fil2" d="M3618.23 263.3c4.86,0 9.25,1.97 12.43,5.15 3.19,3.19 5.16,7.59 5.16,12.44 0,4.86 -1.97,9.25 -5.16,12.43 -3.19,3.19 -7.59,5.16 -12.43,5.16 -4.86,0 -9.25,-1.97 -12.44,-5.15 -3.19,-3.19 -5.16,-7.59 -5.16,-12.44 0,-4.86 1.97,-9.26 5.16,-12.44 3.18,-3.18 7.58,-5.15 12.44,-5.15z"/>
   <path class="fil2" d="M4220.75 386.78c4.86,0 9.26,1.97 12.44,5.15 3.18,3.19 5.15,7.59 5.15,12.44 0,4.86 -1.97,9.25 -5.15,12.43 -3.19,3.19 -7.59,5.16 -12.44,5.16 -4.86,0 -9.25,-1.97 -12.43,-5.15 -3.19,-3.18 -5.16,-7.59 -5.16,-12.44 0,-4.86 1.97,-9.25 5.15,-12.44 3.19,-3.18 7.59,-5.15 12.44,-5.15z"/>
   <path class="fil2" d="M3957.47 508.68c4.86,0 9.25,1.97 12.44,5.16 3.18,3.19 5.15,7.59 5.15,12.43 0,4.86 -1.97,9.25 -5.15,12.44 -3.19,3.19 -7.59,5.16 -12.44,5.16 -4.86,0 -9.25,-1.97 -12.43,-5.16 -3.19,-3.18 -5.16,-7.58 -5.16,-12.44 0,-4.86 1.97,-9.25 5.15,-12.43 3.19,-3.19 7.59,-5.16 12.44,-5.16z"/>
   <path class="fil2" d="M3995.55 1317.05c4.86,0 9.26,1.97 12.44,5.15 3.18,3.19 5.16,7.59 5.16,12.44 0,4.86 -1.98,9.25 -5.16,12.43 -3.19,3.19 -7.59,5.16 -12.44,5.16 -4.86,0 -9.25,-1.97 -12.43,-5.15 -3.19,-3.19 -5.16,-7.59 -5.16,-12.44 0,-4.86 1.97,-9.26 5.15,-12.44 3.19,-3.18 7.59,-5.15 12.44,-5.15z"/>
   <path class="fil2" d="M4330.08 421.21c4.86,0 9.26,1.97 12.44,5.16 3.18,3.19 5.15,7.59 5.15,12.43 0,4.86 -1.97,9.25 -5.15,12.44 -3.19,3.19 -7.59,5.16 -12.44,5.16 -4.86,0 -9.25,-1.97 -12.43,-5.16 -3.19,-3.18 -5.16,-7.58 -5.16,-12.44 0,-4.86 1.97,-9.25 5.15,-12.43 3.19,-3.19 7.59,-5.16 12.44,-5.16z"/>
   <path class="fil2" d="M4117.63 752.06c8.42,0 16.04,3.42 21.56,8.93 5.52,5.52 8.93,13.15 8.93,21.57 0,8.41 -3.42,16.03 -8.93,21.56 -5.52,5.52 -13.15,8.94 -21.56,8.94 -8.42,0 -16.04,-3.42 -21.56,-8.93 -5.52,-5.52 -8.94,-13.15 -8.94,-21.57 0,-8.42 3.42,-16.05 8.93,-21.57 5.52,-5.52 13.15,-8.93 21.57,-8.93z"/>
   <path class="fil2" d="M4657.61 1267.85c4.86,0 9.25,1.97 12.44,5.15 3.18,3.19 5.15,7.59 5.15,12.44 0,4.86 -1.97,9.25 -5.15,12.43 -3.19,3.19 -7.59,5.16 -12.44,5.16 -4.86,0 -9.25,-1.97 -12.44,-5.15 -3.19,-3.18 -5.16,-7.59 -5.16,-12.44 0,-4.86 1.97,-9.25 5.16,-12.44 3.18,-3.18 7.59,-5.15 12.44,-5.15z"/>
   <path class="fil2" d="M5188.99 710.45c8.42,0 16.05,3.42 21.57,8.93 5.52,5.52 8.93,13.15 8.93,21.57 0,8.41 -3.42,16.03 -8.93,21.55 -5.52,5.52 -13.16,8.94 -21.57,8.94 -8.41,0 -16.04,-3.42 -21.56,-8.92 -5.52,-5.52 -8.94,-13.15 -8.94,-21.57 0,-8.42 3.42,-16.05 8.93,-21.57 5.52,-5.52 13.15,-8.93 21.57,-8.93z"/>
   <path class="fil2" d="M5454.5 1258.59c4.86,0 9.26,1.97 12.44,5.16 3.18,3.19 5.15,7.59 5.15,12.43 0,4.86 -1.97,9.25 -5.15,12.44 -3.19,3.19 -7.59,5.16 -12.44,5.16 -4.86,0 -9.25,-1.97 -12.43,-5.16 -3.19,-3.18 -5.16,-7.58 -5.16,-12.44 0,-4.86 1.97,-9.25 5.15,-12.43 3.19,-3.19 7.59,-5.16 12.44,-5.16z"/>
   <path class="fil2" d="M4790 199.67c8.42,0 16.04,3.42 21.57,8.93 5.51,5.52 8.92,13.16 8.92,21.57 0,8.41 -3.42,16.04 -8.92,21.56 -5.53,5.52 -13.16,8.94 -21.57,8.94 -8.42,0 -16.04,-3.42 -21.56,-8.93 -5.52,-5.52 -8.94,-13.15 -8.94,-21.57 0,-8.42 3.42,-16.05 8.93,-21.57 5.52,-5.52 13.15,-8.93 21.57,-8.93z"/>
   <path class="fil2" d="M4599.56 446.17c4.86,0 9.26,1.97 12.44,5.15 3.19,3.19 5.16,7.59 5.16,12.44 0,4.86 -1.97,9.25 -5.16,12.43 -3.19,3.19 -7.59,5.16 -12.44,5.16 -4.85,0 -9.24,-1.97 -12.43,-5.15 -3.19,-3.19 -5.16,-7.59 -5.16,-12.44 0,-4.86 1.97,-9.26 5.16,-12.44 3.18,-3.18 7.58,-5.15 12.43,-5.15z"/>
   <path class="fil2" d="M4573.08 96.69c4.86,0 9.26,1.97 12.44,5.15 3.18,3.19 5.15,7.59 5.15,12.44 0,4.86 -1.97,9.25 -5.15,12.43 -3.19,3.19 -7.59,5.16 -12.44,5.16 -4.86,0 -9.25,-1.97 -12.43,-5.15 -3.19,-3.19 -5.16,-7.59 -5.16,-12.44 0,-4.86 1.97,-9.26 5.15,-12.44 3.19,-3.18 7.59,-5.15 12.44,-5.15z"/>
   <path class="fil2" d="M4329.48 0c8.42,0 16.05,3.41 21.57,8.93 5.52,5.52 8.93,13.15 8.93,21.56 0,8.42 -3.42,16.04 -8.93,21.56 -5.52,5.52 -13.15,8.94 -21.57,8.94 -8.41,0 -16.03,-3.42 -21.56,-8.93 -5.52,-5.52 -8.94,-13.15 -8.94,-21.57 0,-8.42 3.42,-16.04 8.93,-21.56 5.52,-5.52 13.15,-8.93 21.57,-8.93z"/>
   <path class="fil2" d="M5807.36 705.64c8.42,0 16.05,3.42 21.57,8.93 5.52,5.52 8.93,13.16 8.93,21.57 0,8.41 -3.42,16.04 -8.93,21.56 -5.52,5.52 -13.16,8.94 -21.57,8.94 -8.41,0 -16.04,-3.42 -21.56,-8.93 -5.52,-5.52 -8.94,-13.15 -8.94,-21.57 0,-8.42 3.42,-16.05 8.93,-21.57 5.52,-5.52 13.15,-8.93 21.57,-8.93z"/>
   <path class="fil2" d="M5412.6 383.92c4.86,0 9.26,1.97 12.44,5.15 3.18,3.19 5.15,7.59 5.15,12.44 0,4.86 -1.97,9.25 -5.15,12.43 -3.19,3.19 -7.59,5.16 -12.44,5.16 -4.86,0 -9.25,-1.97 -12.43,-5.15 -3.19,-3.19 -5.16,-7.59 -5.16,-12.44 0,-4.86 1.97,-9.26 5.15,-12.44 3.19,-3.18 7.59,-5.15 12.44,-5.15z"/>
   <path class="fil2" d="M5542.99 319.46c4.86,0 9.25,1.97 12.43,5.16 3.19,3.19 5.16,7.59 5.16,12.44 0,4.85 -1.97,9.25 -5.16,12.43 -3.19,3.19 -7.59,5.16 -12.43,5.16 -4.86,0 -9.25,-1.97 -12.44,-5.16 -3.19,-3.18 -5.16,-7.58 -5.16,-12.43 0,-4.86 1.97,-9.26 5.16,-12.44 3.18,-3.19 7.58,-5.16 12.44,-5.16z"/>
   <path class="fil2" d="M6133.48 674.24c4.86,0 9.26,1.97 12.44,5.15 3.18,3.19 5.15,7.59 5.15,12.44 0,4.86 -1.97,9.25 -5.15,12.43 -3.19,3.19 -7.59,5.16 -12.44,5.16 -4.86,0 -9.25,-1.97 -12.43,-5.15 -3.19,-3.19 -5.16,-7.59 -5.16,-12.44 0,-4.86 1.97,-9.26 5.15,-12.44 3.19,-3.18 7.59,-5.15 12.44,-5.15z"/>
   <path class="fil2" d="M6478.26 880.86c4.86,0 9.26,1.97 12.44,5.16 3.19,3.19 5.16,7.59 5.16,12.44 0,4.85 -1.97,9.24 -5.16,12.43 -3.19,3.19 -7.59,5.16 -12.44,5.16 -4.85,0 -9.24,-1.97 -12.43,-5.16 -3.19,-3.18 -5.16,-7.58 -5.16,-12.43 0,-4.86 1.97,-9.26 5.16,-12.44 3.18,-3.19 7.58,-5.16 12.43,-5.16z"/>
   <path class="fil2" d="M6088.28 995.8c4.86,0 9.25,1.97 12.44,5.16 3.18,3.19 5.15,7.59 5.15,12.44 0,4.85 -1.97,9.24 -5.15,12.43 -3.19,3.19 -7.59,5.16 -12.44,5.16 -4.86,0 -9.25,-1.97 -12.43,-5.16 -3.19,-3.18 -5.16,-7.58 -5.16,-12.43 0,-4.86 1.97,-9.26 5.15,-12.44 3.18,-3.19 7.59,-5.16 12.44,-5.16z"/>
   <path class="fil2" d="M5787.33 1016.06c4.86,0 9.25,1.97 12.44,5.15 3.18,3.19 5.15,7.59 5.15,12.44 0,4.86 -1.97,9.25 -5.15,12.43 -3.19,3.19 -7.59,5.16 -12.44,5.16 -4.86,0 -9.25,-1.97 -12.43,-5.15 -3.19,-3.19 -5.16,-7.59 -5.16,-12.44 0,-4.86 1.97,-9.26 5.15,-12.44 3.18,-3.18 7.59,-5.15 12.44,-5.15z"/>
   <path class="fil2" d="M5642.06 252.27c8.42,0 16.04,3.42 21.57,8.93 5.52,5.52 8.92,13.15 8.92,21.57 0,8.41 -3.41,16.03 -8.92,21.55 -5.53,5.52 -13.16,8.94 -21.57,8.94 -8.42,0 -16.04,-3.42 -21.56,-8.93 -5.52,-5.52 -8.94,-13.15 -8.94,-21.56 0,-8.42 3.42,-16.05 8.93,-21.57 5.52,-5.52 13.15,-8.93 21.57,-8.93z"/>
   <path class="fil2" d="M6380.57 1178.24c4.86,0 9.25,1.97 12.44,5.15 3.18,3.19 5.15,7.59 5.15,12.44 0,4.86 -1.97,9.25 -5.15,12.43 -3.19,3.19 -7.59,5.16 -12.44,5.16 -4.86,0 -9.25,-1.97 -12.43,-5.15 -3.19,-3.19 -5.16,-7.59 -5.16,-12.44 0,-4.86 1.97,-9.26 5.15,-12.44 3.18,-3.18 7.59,-5.15 12.44,-5.15z"/>
   <path class="fil2" d="M7124.7 1194.98c8.42,0 16.04,3.41 21.57,8.92 5.52,5.53 8.93,13.16 8.93,21.57 0,8.42 -3.42,16.04 -8.93,21.56 -5.53,5.52 -13.16,8.94 -21.57,8.94 -8.42,0 -16.04,-3.42 -21.56,-8.93 -5.52,-5.52 -8.94,-13.15 -8.94,-21.57 0,-8.42 3.42,-16.04 8.93,-21.57 5.52,-5.52 13.15,-8.92 21.57,-8.92z"/>
   <path class="fil2" d="M7438.68 1373.35c4.86,0 9.25,1.97 12.44,5.15 3.18,3.19 5.15,7.59 5.15,12.44 0,4.86 -1.97,9.25 -5.15,12.43 -3.19,3.19 -7.59,5.16 -12.44,5.16 -4.86,0 -9.25,-1.97 -12.43,-5.15 -3.19,-3.19 -5.16,-7.59 -5.16,-12.44 0,-4.86 1.97,-9.26 5.15,-12.44 3.18,-3.18 7.59,-5.15 12.44,-5.15z"/>
   <path class="fil2" d="M3661.49 1370.47c8.41,0 16.04,3.41 21.56,8.93 5.52,5.52 8.93,13.15 8.93,21.56 0,8.42 -3.42,16.04 -8.93,21.56 -5.52,5.52 -13.15,8.94 -21.56,8.94 -8.42,0 -16.04,-3.42 -21.56,-8.93 -5.52,-5.52 -8.94,-13.15 -8.94,-21.57 0,-8.42 3.42,-16.04 8.93,-21.56 5.52,-5.52 13.15,-8.93 21.57,-8.93z"/>
   <path class="fil2" d="M5711.83 1368.24c8.42,0 16.05,3.42 21.57,8.93 5.52,5.52 8.93,13.16 8.93,21.57 0,8.41 -3.42,16.04 -8.93,21.56 -5.52,5.52 -13.15,8.94 -21.57,8.94 -8.41,0 -16.03,-3.42 -21.55,-8.93 -5.53,-5.52 -8.94,-13.15 -8.94,-21.57 0,-8.42 3.41,-16.05 8.93,-21.57 5.52,-5.52 13.15,-8.93 21.56,-8.93z"/>
   <path class="fil2" d="M5964.25 1489.92c4.86,0 9.25,1.97 12.44,5.15 3.18,3.19 5.15,7.59 5.15,12.44 0,4.86 -1.97,9.25 -5.15,12.43 -3.19,3.19 -7.59,5.16 -12.44,5.16 -4.86,0 -9.25,-1.97 -12.44,-5.15 -3.19,-3.19 -5.16,-7.59 -5.16,-12.44 0,-4.86 1.97,-9.26 5.16,-12.44 3.18,-3.18 7.59,-5.15 12.44,-5.15z"/>
   <path class="fil2" d="M7772.25 1477.18c4.86,0 9.26,1.97 12.44,5.15 3.18,3.19 5.15,7.59 5.15,12.44 0,4.86 -1.97,9.25 -5.15,12.43 -3.19,3.19 -7.59,5.16 -12.44,5.16 -4.86,0 -9.25,-1.97 -12.43,-5.15 -3.19,-3.19 -5.16,-7.59 -5.16,-12.44 0,-4.86 1.97,-9.26 5.15,-12.44 3.19,-3.18 7.59,-5.15 12.44,-5.15z"/>
   <path class="fil2" d="M7498.88 1712.86c4.86,0 9.26,1.97 12.44,5.15 3.18,3.19 5.15,7.59 5.15,12.44 0,4.86 -1.97,9.25 -5.15,12.44 -3.19,3.18 -7.59,5.16 -12.44,5.16 -4.86,0 -9.25,-1.98 -12.43,-5.16 -3.19,-3.18 -5.16,-7.59 -5.16,-12.44 0,-4.86 1.97,-9.25 5.15,-12.44 3.19,-3.18 7.59,-5.15 12.44,-5.15z"/>
   <polygon class="fil1 str0" points="1610.87,1642.46 594.95,2158.67 1071.91,1683.91 "/>
   <polygon class="fil1 str0" points="1610.87,1642.46 2583.18,1272.9 1929.46,2296.81 "/>
   <polygon class="fil1 str0" points="4008,1347.07 4675.2,1285.44 4397.6,1438.81 3964.56,1678.08 "/>
   <polygon class="fil1 str0" points="5361.24,1840.68 5881.52,1548.98 6575.01,2011.25 "/>
   <polygon class="fil1 str0" points="7638.53,1979.97 6905.36,1528.13 6350,1694.73 "/>
   <polygon class="fil1 str0" points="6905.36,1528.13 6523.8,1541.27 6350,1694.73 "/>
   <polygon class="fil1 str0" points="7638.53,1979.97 6905.36,1528.13 6350,1694.73 "/>
   <polygon class="fil1 str0" points="3356.89,1960.09 2728.36,1385.5 2296.72,1721.58 "/>
   <polygon class="fil1 str0" points="70.63,2160.18 724.65,2029.57 1071.91,1683.91 "/>
   <polygon class="fil1 str0" points="571.27,1922.05 724.65,2029.57 1071.91,1683.91 "/>
   <polygon class="fil1 str0" points="5246.54,1747.86 4675.2,1285.44 4397.6,1438.81 3964.56,1678.08 "/>
   <polygon class="fil1 str0" points="6994.27,1837.35 6588.47,1747.53 6575.01,2011.25 "/>
   <path class="fil2" d="M1607.78 1624.87c4.86,0 9.25,1.97 12.44,5.15 3.18,3.19 5.15,7.59 5.15,12.44 0,4.86 -1.97,9.25 -5.15,12.44 -3.19,3.18 -7.59,5.15 -12.44,5.15 -4.86,0 -9.25,-1.97 -12.43,-5.15 -3.19,-3.18 -5.16,-7.59 -5.16,-12.44 0,-4.86 1.97,-9.25 5.15,-12.44 3.18,-3.18 7.59,-5.15 12.44,-5.15z"/>
  </g>
 </g>
</svg>
