<?xml version="1.0" encoding="UTF-8"?>
<!DOCTYPE svg PUBLIC "-//W3C//DTD SVG 1.1//EN" "http://www.w3.org/Graphics/SVG/1.1/DTD/svg11.dtd">
<!-- Creator: CorelDRAW 2019 (64-Bit) -->
<svg xmlns="http://www.w3.org/2000/svg" xml:space="preserve" width="94.2078mm" height="45.69mm" version="1.1" style="shape-rendering:geometricPrecision; text-rendering:geometricPrecision; image-rendering:optimizeQuality; fill-rule:evenodd; clip-rule:evenodd"
viewBox="0 0 12531.85 6077.85"
 xmlns:xlink="http://www.w3.org/1999/xlink"
 xmlns:xodm="http://www.corel.com/coreldraw/odm/2003">
 <defs>
  <style type="text/css">
   <![CDATA[
    .str0 {stroke:#B09347;stroke-width:26.6;stroke-miterlimit:22.9256}
    .fil1 {fill:none}
    .fil2 {fill:#201E1E;fill-rule:nonzero}
    .fil0 {fill:#B09347;fill-rule:nonzero}
   ]]>
  </style>
 </defs>
 <g id="Capa_x0020_1">
  <metadata id="CorelCorpID_0Corel-Layer"/>
  <g id="_2488490342144">
   <path class="fil0" d="M3540.62 3592.53c-52.07,-60.13 -118.06,-98.26 -193.2,-121.72 -24.2,-7.34 -46.57,-4.04 -67.83,9.17 -9.9,6.23 -20.17,12.46 -28.96,20.15 -58.3,48.39 -118.79,94.22 -173.78,146.29 -104.12,98.25 -205.68,201.28 -302.47,307.96l0 0 -241.6 255.9 -24.2 25.3c28.59,-72.59 55.35,-146.29 77.35,-218.15 9.54,-30.05 17.97,-60.11 26.03,-90.18 20.9,-94.97 34.83,-207.52 5.49,-302.1 -5.87,-19.43 -16.49,-37.41 -31.53,-51.33 -46.2,-43.63 -115.12,-70.76 -174.87,-90.55 -42.9,-14.3 -88.37,-20.17 -133.45,-17.24 -69.29,4.78 -137.85,13.57 -204.58,34.47 -213.74,67.83 -401.82,180.01 -564.23,334 -84.32,80.28 -156.91,170.84 -216.31,271.66 -11.73,19.43 -22.36,39.23 -32.26,59.77 -16.14,32.99 -29.7,67.08 -40.33,102.65 -11.73,39.23 -15.76,80.65 -10.27,120.98 3.67,28.59 11,54.99 21.63,79.55 18.33,42.53 47.66,78.46 90.56,105.95 37.03,23.47 77.35,40.33 119.88,51.69 9.9,2.57 19.79,5.13 29.7,5.87 9.17,0.73 17.6,-1.09 23.09,-9.52 3.3,-5.13 3.3,-11.73 0.73,-17.6 -2.57,-5.51 -5.49,-12.11 -9.9,-16.87 -17.97,-19.43 -24.93,-43.26 -29.69,-68.19 -8.07,-41.06 -9.91,-81.4 -4.04,-120.25 5.13,-34.09 16.14,-67.46 33.73,-100.09 23.09,-43.26 49.86,-83.59 79.92,-122.09 8.06,-11 16.49,-21.26 25.3,-31.9 19.79,-23.47 40.33,-46.19 61.22,-68.19 193.95,-203.11 455.35,-370.28 736.91,-414.65 0,0 0.74,0.36 2.21,0.73 2.57,16.87 2.19,32.99 0.36,48.02 -8.79,64.9 -100.82,264.34 -193.2,452.41l-104.12 203.47 0 0 -16.51 33c0,0 -127.58,249.3 -126.85,248.94 -14.66,28.23 -87.62,169.38 -108.15,208.61 -11.73,22.36 -23.47,44.72 -35.93,66.35 0,0 -42.9,77.35 -74.05,124.28 -61.59,12.84 -114.39,35.93 -125.39,41.8 -49.13,27.14 -91.65,65.62 -129.42,111.82 -12.82,15.76 -23.82,33 -32.26,51.33 -23.47,52.42 -18.7,85.41 22.73,114.01 34.45,23.82 71.49,44.72 109.25,63.05 38.5,18.7 76.98,18.7 108.15,-16.85 4.76,-5.13 10.27,-9.91 15.76,-14.3 75.89,-57.56 157.29,-106.33 253.34,-121.72 88.71,-14.3 177.07,-5.13 264.69,12.46 63.07,-22.73 -53.52,-133.09 -54.26,-133.45 -12.46,-9.17 -25.29,-18.33 -38.12,-27.87 -16.49,-9.9 -20.53,-12.46 -36.66,-20.53 3.67,-5.87 7.33,-12.46 11.36,-19.43 106.33,-149.21 213.01,-298.44 319.7,-447.65 89.83,-126.12 182.59,-250.03 281.93,-369.18 71.13,-84.7 145.18,-166.81 222.18,-245.64 35.93,-36.66 72.23,-72.59 109.62,-107.42 12.46,-12.11 30.79,-30.44 42.16,-33 4.4,11 -3.66,24.2 -8.79,33.73 -27.5,52.07 -56.46,103.39 -83.96,155.45 -93.12,175.6 -176.71,355.61 -242.33,543.33 -40.69,116.21 -71.13,235 -80.65,358.18 -4.04,54.26 -0.74,108.16 15.03,159.85 18.33,60.86 52.78,113.66 110.34,142.61 53.17,26.76 111.46,42.53 170.86,45.83 51.69,3.3 87.98,-7.33 107.04,-59.02 7.7,-21.27 4.03,-31.9 -15.76,-41.06 -20.17,-9.54 -55.72,-12.46 -60.13,-38.87 -9.52,-54.99 2.94,-110.34 17.24,-163.51 22.72,-84.32 56.08,-165.33 89.82,-246 64.53,-155.45 143.35,-304.29 221.8,-453.14 69.66,-130.88 131.99,-265.06 182.57,-404.38 22.37,-61.23 41.06,-124.28 59.04,-187.35 5.87,-21.26 6.23,-43.99 7.33,-65.99 1.1,-27.12 -8.43,-53.16 -26.03,-73.68l0 0z"/>
   <path id="1" class="fil0" d="M4324.09 4574.33c-11.36,2.19 -20.9,4.76 -25.29,6.6 -1.84,1.1 -28.23,43.26 -72.59,104.86 -65.99,90.92 -137.48,178.54 -217.41,257.36 -39.23,38.5 -80.29,74.8 -123.91,107.42 -55.36,41.44 -116.22,73.7 -181.11,95.32 -184.05,56.83 -128.31,-169.74 -123.92,-186.98 24.2,-72.95 64.9,-139.32 103.76,-199.44 11,0 11,0 14.66,0 76.26,-1.84 147.02,-22.72 214.85,-52.78 15.76,-6.97 31.17,-14.3 46.56,-22.37 98.25,-49.86 160.95,-131.99 197.61,-234.63 17.6,-49.14 7.7,-91.29 -30.06,-127.6 -54.62,-53.16 -119.51,-86.15 -194.31,-98.61 -22.36,-4.04 -46.93,-2.94 -69.65,0.73 -53.9,8.79 -105.59,26.02 -152.15,55.72 -158.38,101.19 -276.06,239.4 -356.36,406.95 -52.42,109.25 -67.83,225.85 -28.96,345.73 23.82,73.7 67.08,130.88 132.72,171.21 39.59,24.56 82.12,44.36 126.85,57.19 49.86,14.3 101.92,17.97 152.51,7.33 107.06,-22.72 188.81,-100.09 261.76,-176.34 115.49,-121.36 255.17,-329.59 382.02,-506.3 14.3,-19.81 -27.5,-17.24 -57.56,-11.37l0 0zm-324.09 -172.31c3.3,9.17 2.19,19.79 0.36,26.76 -46.19,179.28 -224,213 -227.67,211.91 48.03,-86.53 152.15,-196.87 227.31,-238.67z"/>
   <path id="2" class="fil0" d="M5727.9 4375.62c-6.6,-24.56 -19.43,-46.93 -39.96,-63.43 -33,-26.03 -77.37,-35.93 -119.16,-35.93 -0.36,0 -1.09,0 -1.46,0 -0.73,0 -1.1,0 -1.84,0 -57.19,3.67 -11.36,58.66 -2.57,116.22 19.08,119.52 -21.26,232.07 -97.52,346.46 -71.49,107.42 -151.78,210.44 -249.67,295.13 -58.65,50.23 -119.51,87.62 -188.8,113.66 -31.54,9.54 -28.6,-26.03 -24.57,-46.2 1.1,-4.39 2.19,-8.43 3.3,-12.82 3.3,-13.94 6.97,-27.5 10.27,-41.06 9.52,-39.23 19.43,-78.83 32.63,-117.31 31.9,-94.59 70.76,-186.98 116.95,-276.08 43.99,-85.79 88.35,-171.2 132.35,-257.36 8.43,-16.14 15.76,-32.63 22.36,-49.5 7.33,-19.06 1.84,-35.56 -12.09,-49.86 -26.41,-26.41 -58.66,-41.8 -92.03,-57.2 -104.12,-46.56 -188.08,85.06 -236.84,154.72 -45.83,65.62 -86.53,134.91 -120.63,206.77 0,0.37 -0.36,0.37 -0.36,0.73 -25.66,54.63 -43.63,112.19 -68.2,167.18 -53.16,116.95 -131.24,228.77 -221.07,320.43 -10.63,11 -21.99,22 -33.72,31.9 -22,18.69 -53.9,43.62 -84.7,41.06 -32.99,-2.57 -45.09,-59.4 -44.36,-84.7 1.1,-27.12 4.04,-54.62 11.73,-80.29 12.46,-42.89 27.87,-85.06 45.47,-125.75 51.32,-119.88 109.98,-236.1 175.25,-348.65 22.73,-38.87 44.72,-77.37 66.35,-116.6 9.17,-16.85 17.97,-34.45 24.57,-52.78 12.46,-32.63 8.79,-44 -17.23,-66.37 -37.77,-32.26 -83.23,-49.13 -129.79,-63.05 -40.33,-12.11 -77.73,-8.07 -108.15,23.09 0,0 -488.72,666.89 -281.57,907.39 5.87,6.23 11.37,12.46 17.6,17.96 1.46,1.1 2.94,2.57 4.4,3.67 1.46,1.1 2.57,2.57 4.03,3.66 1.46,1.1 2.57,2.21 4.03,3.31 17.23,13.56 36.3,25.29 57.56,35.18 33,15.76 67.1,28.6 101.92,38.87 0,0 7.7,3.3 21.27,5.87 42.53,7.7 143.35,7.33 261.03,-124.28 24.56,-26.03 52.78,-62.69 83.22,-105.95 -0.37,26.39 1.84,52.42 7.33,78.82 11.37,52.42 47.3,90.19 93.13,116.58 43.62,24.94 93.12,45.84 144.45,45.09 51.32,-0.36 103.75,-29.32 147.38,-53.89 59.4,-33.73 114.39,-73.7 166.44,-117.69 102.3,-86.52 187.72,-191.38 261.4,-303.2 70.4,-107.04 145.18,-223.64 162.78,-353.06 3.3,-23.82 3.3,-47.65 -2.93,-70.76l0 0z"/>
   <path id="3" class="fil0" d="M6849.75 4580.93c-5.13,2.57 -168.65,273.87 -387.52,449.11 0.73,-0.73 1.46,-1.84 2.21,-2.57 4.03,-26.03 2.19,-53.16 -2.21,-81.76 -11,-70.76 -37.77,-103.76 -58.65,-119.52 -103.03,-55.72 -303.2,-70.38 -303.2,-70.38 66.35,-116.6 153.62,-216.68 251.14,-314.2 -1.84,14.3 -2.19,28.96 -6.24,42.53 -6.6,22.73 1.48,39.23 19.08,52.42 11.72,8.81 23.82,17.24 36.66,23.47 25.66,12.84 40.69,9.54 57.19,-13.2 26.03,-36.29 40.69,-77.73 43.99,-122.45 2.57,-36.66 -8.79,-67.83 -34.09,-94.95 -38.12,-41.44 -84.68,-68.93 -134.55,-92.76 -56.81,-26.76 -112.91,-27.14 -169.74,-1.1 -13.2,5.87 -26.76,11.73 -39.6,18.33 -118.05,61.59 -211.53,150.32 -282.66,261.76 -16.49,26.03 -29.33,55.01 -41.42,83.23 -24.2,56.83 -13.94,107.04 32.26,149.57 82.49,75.16 171.95,136.39 286.69,150.69 13.94,1.84 48.03,3.3 55.01,19.06 1.09,1.84 1.46,4.4 1.46,6.97 0.73,16.49 -4.03,32.26 -12.46,46.19 -27.5,45.09 -65.26,83.59 -110.36,111.09 -33.36,20.17 -105.95,59.4 -138.58,19.43 -10.63,-12.84 -16.49,-35.56 -12.84,-52.07 18.7,-83.22 71.13,-82.12 5.51,-122.45 -42.9,-26.03 -133.45,-65.26 -174.89,37.77 -29.32,74.05 -34.09,169.01 28.24,228.77 41.78,40.32 100.45,62.32 159.11,72.59 0.36,0 0.36,0 0.36,0 0,0 0.37,0 0.74,0 2.93,0.73 5.87,1.09 8.79,1.46 1.46,0.36 2.94,0.36 4.76,0.73 22.37,3.3 44.36,5.13 65.63,5.49 2.93,0.37 6.23,0.37 9.52,0.37 8.43,0 17.24,0 25.66,-0.37 40.71,-0.73 90.19,-4.39 144.82,-14.66 141.88,-27.12 318.23,-99.71 466.34,-279.36 11.73,-14.67 23.84,-30.06 35.57,-45.83 82.49,-108.16 169.38,-235.01 250.76,-348.65 19.79,-27.14 -66.72,-11.73 -82.49,-4.78l0 0z"/>
   <path id="4" class="fil0" d="M8892.94 3544.86c-41.8,-25.3 -86.53,-45.83 -134.19,-61.59 -43.62,-14.67 -89.82,-20.17 -135.27,-16.87 -68.93,4.4 -137.12,13.2 -203.11,34.09 -213.74,67.83 -401.81,180.01 -563.86,334 -84.7,80.28 -157.29,170.84 -216.68,271.66 -11.73,19.43 -22.36,39.23 -32.26,59.77 -16.14,32.99 -29.69,67.08 -40.33,102.65 -11.36,39.23 -15.76,80.65 -10.26,120.98 4.03,28.59 10.99,54.99 21.63,79.55 18.33,42.53 47.66,78.46 90.55,105.95 37.03,23.47 77.35,40.33 119.89,51.69 9.9,2.57 19.79,5.13 29.69,5.87 9.54,0.73 17.96,-1.09 23.09,-9.52 3.3,-5.13 3.3,-11.73 0.73,-17.6 -2.57,-5.51 -5.49,-12.11 -9.9,-16.87 -17.96,-19.43 -24.93,-43.26 -29.69,-68.19 -8.06,-41.06 -9.54,-81.4 -3.67,-120.25 4.78,-34.09 15.76,-67.46 33.36,-100.09 23.11,-43.26 49.86,-83.59 79.92,-122.09 8.07,-11 16.87,-21.26 25.3,-31.9 19.79,-23.47 40.33,-46.19 61.23,-68.19 193.94,-203.11 455.34,-370.28 736.91,-414.65 -94.22,80.65 -181.48,171.95 -262.87,260.3 -83.23,90.19 -163.15,184.04 -244.54,275.7 -12.11,13.56 -20.9,24.2 -36.66,39.96 0,0 -267.27,-38.5 -345.73,160.21 13.93,0 27.87,0.36 41.06,0.36 48.75,0.37 155.45,10.64 171.57,16.49 -8.43,11.73 -17.6,23.47 -26.39,35.2 -34.83,46.57 -71.86,96.06 -106.33,141.88 -42.53,57.56 -377.61,534.9 -529.77,559.83 -13.2,2.21 -26.76,1.48 -40.33,-0.73 -15.39,-2.57 -28.23,-9.9 -42.89,-13.93 -4.03,28.96 10.26,63.43 26.76,86.52 18.33,25.67 45.09,44.74 75.89,50.96 64.89,13.2 134.18,7.7 189.17,-31.9 127.22,-90.92 225.83,-210.07 316.76,-335.82 99.73,-137.85 200.19,-274.97 300.27,-412.08 11.73,-16.14 24.93,-31.9 38.86,-49.87 7.7,-9.52 170.84,16.51 211.55,28.24 -6.6,15.39 -11.73,27.5 -17.24,39.23 -33.36,68.19 -67.46,135.64 -99.71,204.2 -34.84,74.43 -67.1,150.32 -90.19,229.86 -20.9,71.13 -36.3,143.36 -35.93,218.15 0,45.83 15.76,85.43 47.29,118.79 43.63,46.92 117.69,83.95 185.51,85.41 29.33,2.57 79.92,-4.39 92.38,-31.15 12.11,-26.76 0,-48.77 0,-48.77 -64.52,-10.63 -32.26,-96.42 -22.36,-119.15 0.73,-1.84 1.84,-4.03 2.57,-5.87 48.39,-106.68 102.65,-210.44 152.15,-316.4 49.13,-105.58 99.71,-210.44 152.14,-314.56 10.27,-19.79 20.54,-39.96 30.79,-59.75 71.5,-142.99 133.09,-294.41 174.51,-448.75 18.7,-68.19 34.09,-139.32 33.36,-210.43 -0.73,-121.36 -87.62,-210.82 -184.77,-270.57l0 0zm-497.51 732.88c19.43,-24.94 24.93,-26.76 35.2,-38.5 117.31,-136.39 267.63,-287.06 369.18,-371.39 -75.89,161.68 -234.27,436.64 -234.27,436.64l-170.11 -26.75z"/>
   <path id="5" class="fil0" d="M10168.78 4580.93c-5.49,2.57 -182.95,297.69 -416.11,471.12 41.05,-52.07 75.52,-109.62 104.85,-169.02 49.13,-99.36 95.32,-207.88 123.91,-314.92 25.3,-95.32 26.76,-217.04 -61.95,-280.47 -39.96,-28.6 -83.23,-47.3 -129.79,-62.33 -51.69,-16.49 -95.68,-10.63 -140.78,22.73 -69.66,52.42 -128.69,115.12 -189.9,176.71 -8.81,8.81 -15.78,15.76 -21.64,20.9 2.21,-3.66 4.4,-6.96 6.24,-9.9 4.76,-11.36 8.79,-21.63 10.63,-26.76 7.7,-23.47 5.13,-44.72 -10.26,-65.26 -17.6,-23.45 -38.14,-43.62 -59.77,-61.59 -18.33,-14.66 -37.77,-27.86 -57.56,-40.32 -8.06,-4.78 -16.49,-9.91 -24.56,-14.3 -20.17,-11.37 -41.8,-8.43 -60.13,5.13 -12.46,8.79 -23.84,19.42 -34.11,30.79 -56.08,61.22 -102.65,129.78 -145.54,200.53 -184.78,304.3 -335.1,624.36 -444.71,963.12 -31.53,97.52 -57.93,196.14 -74.05,296.96 -9.91,61.23 -15.4,122.82 -9.54,184.41 8.43,88 70.4,152.15 158.75,165.72 21.63,3.66 35.93,-7.7 30.42,-28.96 -11.73,-47.66 0.37,-92.03 13.57,-136.39 14.3,-48.02 30.79,-95.32 48.39,-142.26 65.62,-175.98 140.42,-347.55 222.54,-516.2 0.37,-0.37 0.37,-0.37 0.37,-0.37 0,0 7.7,-16.49 21.63,-44.72 1.46,-4.03 3.3,-8.06 5.13,-11.36 7.33,-15.03 16.12,-32.63 25.66,-52.07 4.76,8.79 9.9,17.23 15.4,25.3 0,0 0,0 0,0 0,0 0.36,0 0.36,0 17.24,24.56 37.03,43.99 53.9,57.92 9.52,8.07 20.53,16.14 32.62,23.84 4.04,2.19 6.24,3.66 6.24,3.66 27.14,15.4 60.5,27.87 101.19,31.9l0 0c0,0 0.36,0 0.73,0 9.17,0.73 18.69,1.1 28.6,1.1 76.25,1.84 146.65,-6.97 211.17,-23.11 270.93,-67.08 435.17,-258.82 464.86,-295.49 1.48,-1.84 2.94,-4.04 4.78,-5.87 88.35,-113.66 182.95,-252.24 271.3,-375.42 19.42,-27.14 -67.1,-11.73 -82.86,-4.78l0 0zm-569.37 83.22c-87.98,169.39 -184.04,344.64 -351.58,446.55 -110.36,67.1 -74.07,-63.05 -68.93,-82.85 8.81,-33.73 41.44,-100.46 56.83,-131.25 121.36,-242.34 367.72,-437.74 387.52,-452.41 66.35,-49.86 92.01,-2.93 -23.84,219.97l0 0z"/>
   <path id="6" class="fil0" d="M11321.45 4580.93c-5.49,2.57 -182.95,297.69 -416.11,471.12 41.05,-52.07 75.52,-109.62 104.85,-169.02 49.13,-99.36 95.32,-207.88 123.91,-314.92 25.3,-95.32 26.76,-217.04 -61.95,-280.47 -39.96,-28.6 -83.23,-47.3 -129.79,-62.33 -51.69,-16.49 -95.68,-10.63 -140.78,22.73 -69.66,52.42 -128.69,115.12 -189.9,176.71 -8.81,8.81 -15.78,15.76 -21.64,20.9 2.21,-3.66 4.4,-6.96 6.24,-9.9 4.76,-11.36 8.79,-21.63 10.63,-26.76 7.7,-23.47 5.13,-44.72 -10.26,-65.26 -17.6,-23.45 -38.14,-43.62 -59.77,-61.59 -18.33,-14.66 -37.77,-27.86 -57.56,-40.32 -8.06,-4.78 -16.49,-9.91 -24.56,-14.3 -20.17,-11.37 -41.8,-8.43 -60.13,5.13 -12.46,8.79 -23.84,19.42 -34.11,30.79 -56.08,61.22 -102.65,129.78 -145.54,200.53 -184.78,304.3 -335.1,624.36 -444.71,963.12 -31.53,97.52 -57.93,196.14 -74.05,296.96 -9.91,61.23 -15.4,122.82 -9.54,184.41 8.43,88 70.4,152.15 158.75,165.72 21.63,3.66 35.93,-7.7 30.42,-28.96 -11.73,-47.66 0.37,-92.03 13.57,-136.39 14.3,-48.02 30.79,-95.32 48.39,-142.26 65.62,-175.98 140.42,-347.55 222.54,-516.2 0.37,-0.37 0.37,-0.37 0.37,-0.37 0,0 7.7,-16.49 21.63,-44.72 1.46,-4.03 3.3,-8.06 5.13,-11.36 7.33,-15.03 16.12,-32.63 25.66,-52.07 4.76,8.79 9.9,17.23 15.4,25.3 0,0 0,0 0,0 0,0 0.36,0 0.36,0 17.24,24.56 37.03,43.99 53.9,57.92 9.52,8.07 20.53,16.14 32.62,23.84 4.04,2.19 6.24,3.66 6.24,3.66 27.14,15.4 60.5,27.87 101.19,31.9l0 0c0,0 0.36,0 0.73,0 9.17,0.73 18.69,1.1 28.6,1.1 76.25,1.84 146.65,-6.97 211.17,-23.11 270.93,-67.08 435.17,-258.82 464.86,-295.49 1.48,-1.84 2.94,-4.04 4.78,-5.87 88.35,-113.66 182.95,-252.24 271.3,-375.42 19.42,-27.14 -67.1,-11.73 -82.86,-4.78l0 0zm-569.37 83.22c-87.98,169.39 -184.04,344.64 -351.58,446.55 -110.36,67.1 -74.07,-63.05 -68.93,-82.85 8.81,-33.73 41.44,-100.46 56.83,-131.25 121.36,-242.34 367.72,-437.74 387.52,-452.41 66.35,-49.86 92.01,-2.93 -23.84,219.97l0 0z"/>
   <polygon class="fil1 str0" points="6223.61,36.36 6305.4,619.08 5235.65,425.91 "/>
   <polygon class="fil1 str0" points="5235.65,425.91 4576.77,1224.1 4584.35,869.34 "/>
   <polygon class="fil1 str0" points="5235.65,425.91 4576.77,1224.1 5146.35,1107.57 "/>
   <polygon class="fil1 str0" points="5235.65,425.91 6128.58,587.15 5146.35,1107.57 "/>
   <polygon class="fil1 str0" points="4400.72,1812.96 5320.6,2028.08 5146.35,1107.57 "/>
   <polygon class="fil1 str0" points="4400.72,1812.96 5320.6,2028.08 4984.74,3087.16 "/>
   <polygon class="fil1 str0" points="5693.51,2917.22 5320.6,2028.08 4984.74,3087.16 "/>
   <polygon class="fil1 str0" points="5693.51,2917.22 5320.6,2028.08 5819.66,1955.96 "/>
   <polygon class="fil1 str0" points="5146.35,1107.57 5320.6,2028.08 5819.66,1955.96 "/>
   <polygon class="fil1 str0" points="5146.35,1107.57 6128.58,587.15 5819.66,1955.96 "/>
   <polygon class="fil1 str0" points="6305.4,619.08 6128.58,587.15 5819.66,1955.96 "/>
   <polygon class="fil1 str0" points="6101.88,1179.24 6788.44,1866.48 5819.66,1955.96 "/>
   <polygon class="fil1 str0" points="6101.88,1179.24 6788.44,1866.48 6305.4,619.08 "/>
   <polygon class="fil1 str0" points="6658.24,147.87 6788.44,1866.48 6305.4,619.08 "/>
   <polygon class="fil1 str0" points="6658.24,147.87 6696.68,655.33 6955.12,359.75 "/>
   <polygon class="fil1 str0" points="7524.7,1099.47 6696.68,655.33 6955.12,359.75 "/>
   <polygon class="fil1 str0" points="6658.24,147.87 7040.06,246.69 6955.12,359.75 "/>
   <polygon class="fil1 str0" points="7165.5,269.49 7040.06,246.69 6955.12,359.75 "/>
   <polygon class="fil1 str0" points="8275.59,2012.93 7524.7,1099.47 7427.68,191.45 7575.61,168.45 "/>
   <polygon class="fil1 str0" points="7427.68,191.45 7524.7,1099.47 6955.12,359.75 7165.5,269.49 "/>
   <polygon class="fil1 str0" points="7524.7,1099.47 6696.68,655.33 6751.09,1373.36 "/>
   <polygon class="fil1 str0" points="7524.7,1099.47 8275.59,2012.93 7513.34,1693.15 "/>
   <polygon class="fil1 str0" points="6788.44,1866.48 7784.59,2672.7 6751.09,1373.36 "/>
   <polygon class="fil1 str0" points="8275.59,2012.93 7784.59,2672.7 7616.04,1736.22 "/>
   <polygon class="fil1 str0" points="7616.04,1736.22 7784.59,2672.7 6751.09,1373.36 "/>
   <polygon class="fil1 str0" points="7524.7,1099.47 7513.34,1693.15 6751.09,1373.36 "/>
   <polygon class="fil1 str0" points="7524.7,1099.47 7792.27,1424.96 7894.47,1853.03 "/>
   <polygon class="fil1 str0" points="7524.7,1099.47 6658.24,147.87 6955.12,359.75 "/>
   <polygon class="fil1 str0" points="6002.45,1146.05 5746.3,789.71 5819.66,1955.96 "/>
   <polygon class="fil1 str0" points="6002.45,1146.05 5782.99,1372.83 5819.66,1955.96 "/>
   <polygon class="fil1 str0" points="4400.72,1812.96 3522.5,2210.57 5146.35,1107.57 "/>
   <polygon class="fil1 str0" points="4576.77,1224.1 4210.86,1743.01 5146.35,1107.57 "/>
   <polygon class="fil1 str0" points="4576.77,1224.1 4210.86,1743.01 3750.81,1848.27 "/>
   <polygon class="fil1 str0" points="3522.5,2210.57 4210.86,1743.01 3750.81,1848.27 "/>
   <polygon class="fil1 str0" points="4576.77,1224.1 4243.07,1115.03 3750.81,1848.27 "/>
   <polygon class="fil1 str0" points="4576.77,1224.1 4243.07,1115.03 4584.35,869.34 "/>
   <polygon class="fil1 str0" points="5235.65,425.91 4594.14,722.29 4584.35,869.34 "/>
   <polygon class="fil1 str0" points="4594.14,722.29 4030.89,1015 4243.07,1115.03 4584.35,869.34 "/>
   <polygon class="fil1 str0" points="2339.01,2384.87 4243.07,1115.03 3750.81,1848.27 "/>
   <polygon class="fil1 str0" points="3445.34,1647.04 4243.07,1115.03 3411.76,1553.09 "/>
   <polygon class="fil1 str0" points="3281.05,1422.89 4030.89,1015 3787.14,1355.28 "/>
   <polygon class="fil1 str0" points="3281.05,1422.89 3411.76,1553.09 3787.14,1355.28 "/>
   <polygon class="fil1 str0" points="3281.05,1422.89 3346.41,1487.99 2088.42,2094.24 "/>
   <polygon class="fil1 str0" points="3411.76,1553.09 3346.41,1487.99 2827.19,2059.28 3445.34,1647.04 "/>
   <polygon class="fil1 str0" points="3346.41,1487.99 2827.19,2059.28 2339.01,2384.87 2088.42,2094.24 "/>
   <polygon class="fil1 str0" points="8275.59,2012.93 7784.59,2672.7 8906.24,2576.21 "/>
   <polygon class="fil1 str0" points="8275.59,2012.93 7961.46,1185.17 8366.87,1782.08 "/>
   <polygon class="fil1 str0" points="8275.59,2012.93 8636.55,2179.14 8366.87,1782.08 "/>
   <polygon class="fil1 str0" points="8275.59,2012.93 8906.24,2576.21 8636.55,2179.14 "/>
   <polygon class="fil1 str0" points="8403.27,1475.34 7961.46,1185.17 8366.87,1782.08 "/>
   <polygon class="fil1 str0" points="8403.27,1475.34 7961.46,1185.17 7862.89,559.06 "/>
   <polygon class="fil1 str0" points="7575.61,168.45 7961.46,1185.17 7862.89,559.06 "/>
   <polygon class="fil1 str0" points="8403.27,1475.34 8636.55,2179.14 8366.87,1782.08 "/>
   <polygon class="fil1 str0" points="8403.27,1475.34 8636.55,2179.14 9220.29,2460.78 "/>
   <polygon class="fil1 str0" points="8906.24,2576.21 8636.55,2179.14 9220.29,2460.78 "/>
   <polygon class="fil1 str0" points="8403.27,1475.34 9472.63,2237.95 9220.29,2460.78 "/>
   <polygon class="fil1 str0" points="8403.27,1475.34 8858.32,1453.4 7862.89,559.06 "/>
   <polygon class="fil1 str0" points="7575.61,168.45 8072.09,499.17 7862.89,559.06 "/>
   <polygon class="fil1 str0" points="8450.43,1086.94 8072.09,499.17 7862.89,559.06 "/>
   <polygon class="fil1 str0" points="8403.27,1475.34 8858.32,1453.4 10026.68,2218.86 "/>
   <polygon class="fil1 str0" points="7575.61,168.45 8072.09,499.17 8215.96,400.79 "/>
   <polygon class="fil1 str0" points="8391.32,637.17 8072.09,499.17 8215.96,400.79 "/>
   <polygon class="fil1 str0" points="8391.32,637.17 8072.09,499.17 8450.43,1086.94 "/>
   <polygon class="fil1 str0" points="8391.32,637.17 8579.1,965.37 8858.32,1453.4 8450.43,1086.94 "/>
   <polygon class="fil1 str0" points="9290.2,1736.36 8579.1,965.37 8858.32,1453.4 "/>
   <polygon class="fil1 str0" points="9290.2,1736.36 8579.1,965.37 10021.01,1916.04 "/>
   <polygon class="fil1 str0" points="9290.2,1736.36 10026.68,2218.86 10021.01,1916.04 "/>
   <polygon class="fil1 str0" points="8391.32,637.17 8391.32,637.17 8388.62,543.96 8215.96,400.79 "/>
   <polygon class="fil1 str0" points="8391.32,637.17 8391.32,637.17 8388.62,543.96 8929.5,1014.32 8552.92,919.62 "/>
   <polygon class="fil1 str0" points="8579.1,965.37 9103.35,1311 8929.5,1014.32 8552.92,919.62 "/>
   <polygon class="fil1 str0" points="9103.35,1311 8929.5,1014.32 10191.43,1743.11 10021.01,1916.04 "/>
   <polygon class="fil1 str0" points="9103.35,1311 8929.5,1014.32 9395.27,1283.32 "/>
   <polygon class="fil1 str0" points="8970.38,879.99 8929.5,1014.32 9395.27,1283.32 "/>
   <polygon class="fil1 str0" points="8970.38,879.99 8929.5,1014.32 8572.56,703.91 "/>
   <polygon class="fil1 str0" points="8970.38,879.99 8556.74,545.76 8215.96,400.79 8572.56,703.91 "/>
   <polygon class="fil1 str0" points="8970.38,879.99 9477,1075.28 9395.27,1283.32 "/>
   <polygon class="fil1 str0" points="9703.99,1205.59 9477,1075.28 9395.27,1283.32 "/>
   <polygon class="fil1 str0" points="9703.99,1205.59 9772.27,1501.04 9395.27,1283.32 "/>
   <polygon class="fil1 str0" points="9703.99,1205.59 9772.27,1501.04 9651.38,1431.23 "/>
   <polygon class="fil1 str0" points="9703.99,1205.59 9772.27,1501.04 10136.99,1711.68 "/>
   <polygon class="fil1 str0" points="9703.99,1205.59 10019.6,1386.66 9948.15,1490.98 "/>
   <polygon class="fil1 str0" points="10136.99,1711.68 10019.6,1386.66 9948.15,1490.98 "/>
   <polygon class="fil1 str0" points="7575.61,168.45 7908.5,239.1 8215.96,400.79 "/>
   <polygon class="fil1 str0" points="8547.27,540.28 8183.37,327.85 8215.96,400.79 "/>
   <polygon class="fil1 str0" points="7908.5,239.1 8183.37,327.85 8215.96,400.79 "/>
   <polygon class="fil1 str0" points="8970.38,879.99 8556.74,545.76 9477,1075.28 "/>
   <polygon class="fil1 str0" points="10036.97,1888.47 10402.89,2407.38 10862.93,2512.64 "/>
   <polygon class="fil1 str0" points="11091.24,2874.94 10402.89,2407.38 10862.93,2512.64 "/>
   <polygon class="fil1 str0" points="10036.97,1888.47 10370.69,1779.4 10862.93,2512.64 "/>
   <polygon class="fil1 str0" points="10036.97,1888.47 10370.69,1779.4 10191.43,1743.11 "/>
   <polygon class="fil1 str0" points="10019.6,1386.66 10582.86,1679.36 10370.69,1779.4 "/>
   <polygon class="fil1 str0" points="11412.25,2604.08 10370.69,1779.4 10862.93,2512.64 "/>
   <polygon class="fil1 str0" points="11168.42,2311.42 10370.69,1779.4 11201.98,2217.46 "/>
   <polygon class="fil1 str0" points="11332.69,2087.26 10582.86,1679.36 10826.6,2019.66 "/>
   <polygon class="fil1 str0" points="11332.69,2087.26 11201.98,2217.46 10826.6,2019.66 "/>
   <polygon class="fil1 str0" points="11332.69,2087.26 11267.33,2152.36 12525.32,2758.62 "/>
   <polygon class="fil1 str0" points="11201.98,2217.46 11267.33,2152.36 11786.55,2723.66 11168.42,2311.42 "/>
   <polygon class="fil1 str0" points="2170.25,2189.14 1273.63,2562.96 2088.42,2094.24 "/>
   <polygon class="fil1 str0" points="6223.61,36.36 6305.4,619.08 6304.52,26.21 "/>
   <polygon class="fil1 str0" points="6658.24,147.87 6305.4,619.08 6304.52,26.21 "/>
   <path class="fil2" d="M3750.81 1822.73c7.06,0 13.45,2.86 18.06,7.49 4.63,4.63 7.49,11.01 7.49,18.05 0,7.05 -2.86,13.44 -7.49,18.06 -4.63,4.63 -11.01,7.49 -18.06,7.49 -7.04,0 -13.42,-2.86 -18.05,-7.49 -4.63,-4.62 -7.49,-11 -7.49,-18.06 0,-7.05 2.86,-13.44 7.49,-18.05 4.62,-4.63 11,-7.49 18.05,-7.49z"/>
   <path class="fil2" d="M3393.7 1490.75c12.22,0 23.31,4.96 31.31,12.97 8.01,8.03 12.97,19.1 12.97,31.31 0,12.22 -4.96,23.29 -12.97,31.3 -8.02,8.02 -19.09,12.98 -31.31,12.98 -12.21,0 -23.28,-4.96 -31.29,-12.97 -8.03,-8.01 -12.98,-19.09 -12.98,-31.31 0,-12.22 4.95,-23.29 12.97,-31.31 8.01,-8.01 19.09,-12.97 31.3,-12.97z"/>
   <path class="fil2" d="M4241.1 1092.4c7.05,0 13.45,2.86 18.06,7.48 4.62,4.63 7.49,11.01 7.49,18.06 0,7.05 -2.87,13.44 -7.49,18.05 -4.63,4.63 -11.01,7.49 -18.06,7.49 -7.05,0 -13.44,-2.86 -18.05,-7.48 -4.63,-4.62 -7.49,-11.01 -7.49,-18.06 0,-7.05 2.86,-13.44 7.48,-18.06 4.63,-4.62 11.01,-7.48 18.06,-7.48z"/>
   <path class="fil2" d="M4589.76 1155.42c12.22,0 23.29,4.96 31.3,12.97 8.01,8.03 12.97,19.1 12.97,31.31 0,12.22 -4.96,23.29 -12.97,31.3 -8.02,8.02 -19.09,12.98 -31.3,12.98 -12.22,0 -23.29,-4.96 -31.3,-12.97 -8.02,-8.01 -12.98,-19.09 -12.98,-31.31 0,-12.22 4.96,-23.31 12.97,-31.31 8.01,-8.01 19.09,-12.97 31.31,-12.97z"/>
   <path class="fil2" d="M4228.91 1699.4c7.05,0 13.44,2.86 18.06,7.48 4.62,4.63 7.48,11.01 7.48,18.06 0,7.05 -2.86,13.44 -7.48,18.06 -4.63,4.62 -11.01,7.48 -18.06,7.48 -7.05,0 -13.44,-2.86 -18.05,-7.48 -4.63,-4.62 -7.49,-11.01 -7.49,-18.06 0,-7.05 2.86,-13.44 7.48,-18.06 4.62,-4.62 11.01,-7.48 18.06,-7.48z"/>
   <path class="fil2" d="M5192.47 1049.09c7.05,0 13.44,2.86 18.06,7.49 4.62,4.63 7.48,11.01 7.48,18.06 0,7.04 -2.86,13.42 -7.48,18.05 -4.63,4.63 -11.01,7.49 -18.06,7.49 -7.05,0 -13.44,-2.86 -18.05,-7.49 -4.63,-4.62 -7.49,-11 -7.49,-18.05 0,-7.06 2.86,-13.45 7.48,-18.06 4.63,-4.63 11.01,-7.49 18.06,-7.49z"/>
   <path class="fil2" d="M5253.71 382.31c7.05,0 13.44,2.86 18.05,7.48 4.63,4.63 7.49,11.01 7.49,18.06 0,7.05 -2.86,13.44 -7.49,18.05 -4.63,4.63 -11.01,7.49 -18.05,7.49 -7.05,0 -13.44,-2.86 -18.06,-7.48 -4.63,-4.63 -7.49,-11.01 -7.49,-18.06 0,-7.05 2.86,-13.45 7.49,-18.06 4.62,-4.62 11,-7.48 18.06,-7.48z"/>
   <path class="fil2" d="M6128.58 561.61c7.05,0 13.45,2.86 18.06,7.48 4.62,4.63 7.48,11.01 7.48,18.06 0,7.05 -2.86,13.44 -7.48,18.05 -4.63,4.63 -11.01,7.49 -18.06,7.49 -7.05,0 -13.44,-2.86 -18.05,-7.48 -4.63,-4.62 -7.49,-11.01 -7.49,-18.06 0,-7.05 2.86,-13.44 7.48,-18.06 4.63,-4.62 11.01,-7.48 18.06,-7.48z"/>
   <path class="fil2" d="M5746.3 738.61c7.05,0 13.44,2.86 18.06,7.49 4.62,4.63 7.48,11.01 7.48,18.05 0,7.05 -2.86,13.44 -7.48,18.06 -4.63,4.63 -11.01,7.49 -18.06,7.49 -7.05,0 -13.44,-2.86 -18.05,-7.49 -4.63,-4.62 -7.49,-11 -7.49,-18.06 0,-7.05 2.86,-13.44 7.48,-18.05 4.63,-4.63 11.01,-7.49 18.06,-7.49z"/>
   <path class="fil2" d="M5801.6 1912.37c7.05,0 13.45,2.86 18.06,7.48 4.62,4.63 7.49,11.01 7.49,18.06 0,7.05 -2.87,13.44 -7.49,18.05 -4.63,4.63 -11.01,7.49 -18.06,7.49 -7.05,0 -13.44,-2.86 -18.05,-7.48 -4.63,-4.63 -7.49,-11.01 -7.49,-18.06 0,-7.05 2.86,-13.45 7.48,-18.06 4.63,-4.62 11.01,-7.48 18.06,-7.48z"/>
   <path class="fil2" d="M6287.33 611.6c7.05,0 13.45,2.86 18.06,7.49 4.62,4.63 7.48,11.01 7.48,18.05 0,7.05 -2.86,13.44 -7.48,18.06 -4.63,4.63 -11.01,7.49 -18.06,7.49 -7.05,0 -13.44,-2.86 -18.05,-7.49 -4.63,-4.62 -7.49,-11 -7.49,-18.06 0,-7.05 2.86,-13.44 7.48,-18.05 4.63,-4.63 11.01,-7.49 18.06,-7.49z"/>
   <path class="fil2" d="M5978.85 1092c12.22,0 23.29,4.96 31.3,12.97 8.01,8.02 12.97,19.09 12.97,31.31 0,12.21 -4.96,23.28 -12.97,31.3 -8.02,8.02 -19.09,12.98 -31.3,12.98 -12.22,0 -23.29,-4.96 -31.3,-12.97 -8.02,-8.02 -12.98,-19.09 -12.98,-31.31 0,-12.22 4.96,-23.31 12.97,-31.31 8.01,-8.01 19.09,-12.97 31.31,-12.97z"/>
   <path class="fil2" d="M6762.9 1840.94c7.05,0 13.44,2.86 18.06,7.48 4.62,4.63 7.48,11.01 7.48,18.06 0,7.05 -2.86,13.44 -7.48,18.05 -4.63,4.63 -11.01,7.49 -18.06,7.49 -7.05,0 -13.44,-2.86 -18.06,-7.48 -4.63,-4.62 -7.49,-11.01 -7.49,-18.06 0,-7.05 2.86,-13.44 7.49,-18.06 4.62,-4.62 11.01,-7.48 18.06,-7.48z"/>
   <path class="fil2" d="M7534.48 1031.58c12.22,0 23.31,4.96 31.31,12.97 8.01,8.02 12.97,19.09 12.97,31.31 0,12.21 -4.96,23.28 -12.97,31.29 -8.02,8.02 -19.1,12.98 -31.31,12.98 -12.21,0 -23.29,-4.96 -31.3,-12.96 -8.02,-8.02 -12.98,-19.09 -12.98,-31.31 0,-12.22 4.96,-23.31 12.97,-31.31 8.01,-8.01 19.09,-12.97 31.31,-12.97z"/>
   <path class="fil2" d="M7920.01 1827.49c7.05,0 13.45,2.86 18.06,7.49 4.62,4.63 7.48,11.01 7.48,18.05 0,7.05 -2.86,13.44 -7.48,18.06 -4.63,4.63 -11.01,7.49 -18.06,7.49 -7.05,0 -13.44,-2.86 -18.05,-7.49 -4.63,-4.62 -7.49,-11 -7.49,-18.06 0,-7.05 2.86,-13.44 7.48,-18.05 4.63,-4.63 11.01,-7.49 18.06,-7.49z"/>
   <path class="fil2" d="M6955.14 289.92c12.22,0 23.29,4.96 31.31,12.97 7.99,8.02 12.96,19.1 12.96,31.31 0,12.21 -4.96,23.29 -12.96,31.3 -8.03,8.02 -19.1,12.98 -31.31,12.98 -12.22,0 -23.29,-4.96 -31.3,-12.97 -8.02,-8.01 -12.98,-19.09 -12.98,-31.31 0,-12.22 4.96,-23.31 12.97,-31.31 8.01,-8.01 19.09,-12.97 31.31,-12.97z"/>
   <path class="fil2" d="M6678.62 647.85c7.06,0 13.45,2.86 18.06,7.48 4.63,4.63 7.49,11.01 7.49,18.06 0,7.05 -2.86,13.44 -7.49,18.05 -4.63,4.63 -11.01,7.49 -18.06,7.49 -7.04,0 -13.42,-2.86 -18.05,-7.48 -4.63,-4.63 -7.49,-11.01 -7.49,-18.06 0,-7.05 2.86,-13.45 7.49,-18.06 4.62,-4.62 11,-7.48 18.05,-7.48z"/>
   <path class="fil2" d="M6640.18 140.39c7.05,0 13.45,2.86 18.06,7.48 4.62,4.63 7.48,11.01 7.48,18.06 0,7.05 -2.86,13.44 -7.48,18.05 -4.63,4.63 -11.01,7.49 -18.06,7.49 -7.05,0 -13.44,-2.86 -18.05,-7.48 -4.63,-4.63 -7.49,-11.01 -7.49,-18.06 0,-7.05 2.86,-13.45 7.48,-18.06 4.63,-4.62 11.01,-7.48 18.06,-7.48z"/>
   <path class="fil2" d="M6286.45 0c12.22,0 23.31,4.95 31.31,12.97 8.01,8.02 12.97,19.09 12.97,31.3 0,12.22 -4.96,23.29 -12.97,31.3 -8.02,8.02 -19.09,12.98 -31.31,12.98 -12.21,0 -23.28,-4.96 -31.3,-12.97 -8.02,-8.01 -12.98,-19.09 -12.98,-31.31 0,-12.22 4.96,-23.29 12.97,-31.3 8.02,-8.02 19.09,-12.97 31.31,-12.97z"/>
   <path class="fil2" d="M8432.36 1024.6c12.22,0 23.31,4.96 31.31,12.97 8.01,8.02 12.97,19.1 12.97,31.31 0,12.21 -4.96,23.29 -12.97,31.3 -8.02,8.02 -19.1,12.98 -31.31,12.98 -12.21,0 -23.29,-4.96 -31.3,-12.97 -8.02,-8.01 -12.98,-19.09 -12.98,-31.31 0,-12.22 4.96,-23.31 12.97,-31.31 8.01,-8.01 19.09,-12.97 31.31,-12.97z"/>
   <path class="fil2" d="M7859.16 557.46c7.05,0 13.45,2.86 18.06,7.48 4.62,4.63 7.48,11.01 7.48,18.06 0,7.05 -2.86,13.44 -7.48,18.05 -4.63,4.63 -11.01,7.49 -18.06,7.49 -7.05,0 -13.44,-2.86 -18.05,-7.48 -4.63,-4.63 -7.49,-11.01 -7.49,-18.06 0,-7.05 2.86,-13.45 7.48,-18.06 4.63,-4.62 11.01,-7.48 18.06,-7.48z"/>
   <path class="fil2" d="M8048.5 463.85c7.05,0 13.44,2.86 18.05,7.49 4.63,4.63 7.49,11.01 7.49,18.06 0,7.04 -2.86,13.44 -7.49,18.05 -4.63,4.63 -11.01,7.49 -18.05,7.49 -7.05,0 -13.44,-2.86 -18.06,-7.49 -4.63,-4.62 -7.49,-11 -7.49,-18.05 0,-7.05 2.86,-13.45 7.49,-18.06 4.62,-4.63 11,-7.49 18.06,-7.49z"/>
   <path class="fil2" d="M8905.89 979c7.05,0 13.45,2.86 18.06,7.48 4.62,4.63 7.48,11.01 7.48,18.06 0,7.05 -2.86,13.44 -7.48,18.05 -4.63,4.63 -11.01,7.49 -18.06,7.49 -7.05,0 -13.44,-2.86 -18.05,-7.48 -4.63,-4.63 -7.49,-11.01 -7.49,-18.06 0,-7.05 2.86,-13.45 7.48,-18.06 4.63,-4.62 11.01,-7.48 18.06,-7.48z"/>
   <path class="fil2" d="M9406.52 1279.02c7.06,0 13.45,2.86 18.06,7.49 4.63,4.63 7.49,11.01 7.49,18.06 0,7.04 -2.86,13.42 -7.49,18.05 -4.63,4.63 -11.01,7.49 -18.06,7.49 -7.04,0 -13.42,-2.86 -18.05,-7.49 -4.63,-4.62 -7.49,-11 -7.49,-18.05 0,-7.06 2.86,-13.45 7.49,-18.06 4.62,-4.63 11,-7.49 18.05,-7.49z"/>
   <path class="fil2" d="M8840.25 1445.91c7.05,0 13.44,2.86 18.06,7.49 4.62,4.63 7.48,11.01 7.48,18.06 0,7.04 -2.86,13.42 -7.48,18.05 -4.63,4.63 -11.01,7.49 -18.06,7.49 -7.05,0 -13.44,-2.86 -18.05,-7.49 -4.63,-4.62 -7.49,-11 -7.49,-18.05 0,-7.06 2.86,-13.45 7.48,-18.06 4.62,-4.63 11.01,-7.49 18.06,-7.49z"/>
   <path class="fil2" d="M8403.27 1475.34c7.05,0 13.44,2.86 18.06,7.48 4.62,4.63 7.48,11.01 7.48,18.06 0,7.05 -2.86,13.44 -7.48,18.05 -4.63,4.63 -11.01,7.49 -18.06,7.49 -7.05,0 -13.44,-2.86 -18.05,-7.48 -4.63,-4.63 -7.49,-11.01 -7.49,-18.06 0,-7.05 2.86,-13.45 7.48,-18.06 4.62,-4.62 11.01,-7.48 18.06,-7.48z"/>
   <path class="fil2" d="M8192.35 366.29c12.22,0 23.29,4.96 31.31,12.97 8.01,8.02 12.96,19.09 12.96,31.31 0,12.21 -4.95,23.28 -12.96,31.29 -8.03,8.02 -19.1,12.98 -31.31,12.98 -12.22,0 -23.29,-4.96 -31.3,-12.97 -8.02,-8.01 -12.98,-19.09 -12.98,-31.3 0,-12.22 4.96,-23.31 12.97,-31.31 8.01,-8.01 19.09,-12.97 31.31,-12.97z"/>
   <path class="fil2" d="M9264.66 1710.82c7.05,0 13.44,2.86 18.06,7.48 4.62,4.63 7.48,11.01 7.48,18.06 0,7.05 -2.86,13.44 -7.48,18.05 -4.63,4.63 -11.01,7.49 -18.06,7.49 -7.05,0 -13.44,-2.86 -18.05,-7.48 -4.63,-4.63 -7.49,-11.01 -7.49,-18.06 0,-7.05 2.86,-13.45 7.48,-18.06 4.62,-4.62 11.01,-7.48 18.06,-7.48z"/>
   <path class="fil2" d="M10345.15 1735.12c12.22,0 23.29,4.95 31.31,12.96 8.01,8.03 12.97,19.1 12.97,31.31 0,12.22 -4.96,23.29 -12.97,31.3 -8.03,8.02 -19.1,12.98 -31.31,12.98 -12.22,0 -23.29,-4.96 -31.3,-12.97 -8.02,-8.01 -12.98,-19.09 -12.98,-31.31 0,-12.22 4.96,-23.29 12.97,-31.31 8.01,-8.01 19.09,-12.96 31.31,-12.96z"/>
   <path class="fil2" d="M10801.06 1994.12c7.05,0 13.44,2.86 18.06,7.48 4.62,4.63 7.48,11.01 7.48,18.06 0,7.05 -2.86,13.44 -7.48,18.05 -4.63,4.63 -11.01,7.49 -18.06,7.49 -7.05,0 -13.44,-2.86 -18.05,-7.48 -4.63,-4.63 -7.49,-11.01 -7.49,-18.06 0,-7.05 2.86,-13.45 7.48,-18.06 4.62,-4.62 11.01,-7.48 18.06,-7.48z"/>
   <path class="fil2" d="M5316.53 1989.94c12.21,0 23.29,4.95 31.3,12.97 8.01,8.02 12.97,19.09 12.97,31.3 0,12.22 -4.96,23.29 -12.97,31.3 -8.02,8.02 -19.09,12.98 -31.3,12.98 -12.22,0 -23.29,-4.96 -31.3,-12.97 -8.02,-8.01 -12.98,-19.09 -12.98,-31.31 0,-12.22 4.96,-23.29 12.97,-31.3 8.01,-8.02 19.09,-12.97 31.31,-12.97z"/>
   <path class="fil2" d="M8293.64 1986.71c12.22,0 23.31,4.96 31.31,12.97 8.01,8.02 12.97,19.1 12.97,31.31 0,12.21 -4.96,23.29 -12.97,31.3 -8.02,8.02 -19.09,12.98 -31.31,12.98 -12.21,0 -23.28,-4.96 -31.29,-12.97 -8.03,-8.01 -12.98,-19.09 -12.98,-31.31 0,-12.22 4.95,-23.31 12.97,-31.31 8.01,-8.01 19.09,-12.97 31.3,-12.97z"/>
   <path class="fil2" d="M8660.16 2163.39c7.05,0 13.44,2.86 18.06,7.48 4.62,4.63 7.48,11.01 7.48,18.06 0,7.05 -2.86,13.44 -7.48,18.05 -4.63,4.63 -11.01,7.49 -18.06,7.49 -7.05,0 -13.44,-2.86 -18.06,-7.48 -4.63,-4.63 -7.49,-11.01 -7.49,-18.06 0,-7.05 2.86,-13.45 7.49,-18.06 4.62,-4.62 11.01,-7.48 18.06,-7.48z"/>
   <path class="fil2" d="M11285.4 2144.88c7.05,0 13.45,2.86 18.06,7.48 4.62,4.63 7.48,11.01 7.48,18.06 0,7.05 -2.86,13.44 -7.48,18.05 -4.63,4.63 -11.01,7.49 -18.06,7.49 -7.05,0 -13.44,-2.86 -18.05,-7.48 -4.63,-4.63 -7.49,-11.01 -7.49,-18.06 0,-7.05 2.86,-13.45 7.48,-18.06 4.63,-4.62 11.01,-7.48 18.06,-7.48z"/>
   <path class="fil2" d="M10888.47 2487.1c7.05,0 13.45,2.86 18.06,7.48 4.62,4.63 7.48,11.01 7.48,18.06 0,7.05 -2.86,13.44 -7.48,18.06 -4.63,4.62 -11.01,7.49 -18.06,7.49 -7.05,0 -13.44,-2.87 -18.05,-7.49 -4.63,-4.62 -7.49,-11.01 -7.49,-18.06 0,-7.05 2.86,-13.44 7.48,-18.06 4.63,-4.62 11.01,-7.48 18.06,-7.48z"/>
   <polygon class="fil1 str0" points="2339.01,2384.87 863.88,3134.42 1556.43,2445.07 "/>
   <polygon class="fil1 str0" points="2339.01,2384.87 3750.81,1848.27 2801.6,3334.99 "/>
   <polygon class="fil1 str0" points="5819.66,1955.96 6788.44,1866.48 6385.37,2089.17 5756.59,2436.59 "/>
   <polygon class="fil1 str0" points="7784.59,2672.7 8540.04,2249.14 9546.99,2920.36 "/>
   <polygon class="fil1 str0" points="11091.24,2874.94 10026.68,2218.86 9220.29,2460.78 "/>
   <polygon class="fil1 str0" points="10026.68,2218.86 9472.63,2237.95 9220.29,2460.78 "/>
   <polygon class="fil1 str0" points="11091.24,2874.94 10026.68,2218.86 9220.29,2460.78 "/>
   <polygon class="fil1 str0" points="4874.25,2846.08 3961.61,2011.77 3334.87,2499.75 "/>
   <polygon class="fil1 str0" points="102.56,3136.62 1052.2,2946.96 1556.43,2445.07 "/>
   <polygon class="fil1 str0" points="829.49,2790.85 1052.2,2946.96 1556.43,2445.07 "/>
   <polygon class="fil1 str0" points="7618.05,2537.92 6788.44,1866.48 6385.37,2089.17 5756.59,2436.59 "/>
   <polygon class="fil1 str0" points="10155.76,2667.85 9566.55,2537.44 9546.99,2920.36 "/>
   <path class="fil2" d="M2334.51 2359.33c7.05,0 13.44,2.86 18.06,7.48 4.62,4.63 7.48,11.01 7.48,18.06 0,7.05 -2.86,13.44 -7.48,18.06 -4.63,4.62 -11.01,7.48 -18.06,7.48 -7.05,0 -13.44,-2.86 -18.05,-7.48 -4.63,-4.62 -7.49,-11.01 -7.49,-18.06 0,-7.05 2.86,-13.44 7.48,-18.06 4.62,-4.62 11.01,-7.48 18.06,-7.48z"/>
  </g>
 </g>
</svg>
